ISO-10303-21;
HEADER;
/* Generated by software containing ST-Developer
 * from STEP Tools, Inc. (www.steptools.com) 
 */
/* OPTION: using custom renumber hook */

FILE_DESCRIPTION(
/* description */ ('STEP AP242',
'CAx-IF Rec.Pracs.---Representation and Presentation of Product Manufa
cturing Information (PMI)---4.0---2014-10-13',
'CAx-IF Rec.Pracs.---3D Tessellated Geometry---0.4---2014-09-14','2;1'),

/* implementation_level */ '2;1');

FILE_NAME(
/* name */ '68af075f4d24607e1888b216',
/* time_stamp */ '2025-08-27T13:25:52Z',
/* author */ (''),
/* organization */ (''),
/* preprocessor_version */ 'ST-DEVELOPER v20',
/* originating_system */ 'ONSHAPE BY PTC INC, 1.202',
/* authorisation */ '  ');

FILE_SCHEMA (('AP242_MANAGED_MODEL_BASED_3D_ENGINEERING_MIM_LF { 1 0 10303 442 1 1 4 }'));
ENDSEC;

DATA;
#10=SHAPE_REPRESENTATION_RELATIONSHIP('','',#1092,#13);
#11=SHAPE_REPRESENTATION_RELATIONSHIP('','',#1093,#14);
#12=SHAPE_REPRESENTATION_RELATIONSHIP('','',#1094,#15);
#13=ADVANCED_BREP_SHAPE_REPRESENTATION('',(#1086),#1854);
#14=ADVANCED_BREP_SHAPE_REPRESENTATION('',(#1087),#1855);
#15=ADVANCED_BREP_SHAPE_REPRESENTATION('',(#1088),#1856);
#16=SPHERICAL_SURFACE('',#1112,0.0001);
#17=SPHERICAL_SURFACE('',#1114,0.0001);
#18=SPHERICAL_SURFACE('',#1130,0.0001);
#19=SPHERICAL_SURFACE('',#1132,0.0001);
#20=SPHERICAL_SURFACE('',#1134,0.0001);
#21=SPHERICAL_SURFACE('',#1151,0.0001);
#22=SPHERICAL_SURFACE('',#1153,0.0001);
#23=SPHERICAL_SURFACE('',#1163,0.0001);
#24=ELLIPSE('',#1111,0.000108239220029239,0.0001);
#25=ELLIPSE('',#1118,0.000108239220029239,0.0001);
#26=ELLIPSE('',#1129,0.000108239220029239,0.0001);
#27=ELLIPSE('',#1138,0.000108239220029239,0.0001);
#28=ELLIPSE('',#1140,0.000108239220029239,0.0001);
#29=ELLIPSE('',#1150,0.000108239220029239,0.0001);
#30=ELLIPSE('',#1156,0.000108239220029239,0.0001);
#31=ELLIPSE('',#1162,0.000108239220029239,0.0001);
#32=CIRCLE('',#1107,0.0001);
#33=CIRCLE('',#1108,0.0001);
#34=CIRCLE('',#1110,0.0001);
#35=CIRCLE('',#1113,0.0001);
#36=CIRCLE('',#1115,0.0001);
#37=CIRCLE('',#1116,0.0001);
#38=CIRCLE('',#1120,0.0001);
#39=CIRCLE('',#1122,0.0001);
#40=CIRCLE('',#1123,0.0001);
#41=CIRCLE('',#1125,0.0001);
#42=CIRCLE('',#1127,0.0001);
#43=CIRCLE('',#1131,0.0001);
#44=CIRCLE('',#1133,0.0001);
#45=CIRCLE('',#1135,0.0001);
#46=CIRCLE('',#1136,0.0001);
#47=CIRCLE('',#1142,0.0001);
#48=CIRCLE('',#1144,0.0001);
#49=CIRCLE('',#1146,0.0001);
#50=CIRCLE('',#1148,0.0001);
#51=CIRCLE('',#1152,0.0001);
#52=CIRCLE('',#1154,0.0001);
#53=CIRCLE('',#1158,0.0001);
#54=CIRCLE('',#1160,0.0001);
#55=CIRCLE('',#1164,0.0001);
#56=CIRCLE('',#1168,5.E-5);
#57=CIRCLE('',#1169,5.E-5);
#58=CIRCLE('',#1172,5.E-5);
#59=CIRCLE('',#1173,5.E-5);
#60=CIRCLE('',#1178,4.99999999999993E-5);
#61=CIRCLE('',#1179,4.99999999999993E-5);
#62=CIRCLE('',#1182,5.E-5);
#63=CIRCLE('',#1183,5.E-5);
#64=CIRCLE('',#1191,5.E-5);
#65=CIRCLE('',#1192,5.E-5);
#66=CIRCLE('',#1195,5.E-5);
#67=CIRCLE('',#1196,5.E-5);
#68=CIRCLE('',#1201,4.99999999999993E-5);
#69=CIRCLE('',#1202,4.99999999999993E-5);
#70=CIRCLE('',#1205,5.E-5);
#71=CIRCLE('',#1206,5.E-5);
#72=CYLINDRICAL_SURFACE('',#1106,0.0001);
#73=CYLINDRICAL_SURFACE('',#1109,0.0001);
#74=CYLINDRICAL_SURFACE('',#1117,0.0001);
#75=CYLINDRICAL_SURFACE('',#1119,0.0001);
#76=CYLINDRICAL_SURFACE('',#1121,0.0001);
#77=CYLINDRICAL_SURFACE('',#1124,0.0001);
#78=CYLINDRICAL_SURFACE('',#1126,0.0001);
#79=CYLINDRICAL_SURFACE('',#1128,0.0001);
#80=CYLINDRICAL_SURFACE('',#1137,0.0001);
#81=CYLINDRICAL_SURFACE('',#1139,0.0001);
#82=CYLINDRICAL_SURFACE('',#1141,0.0001);
#83=CYLINDRICAL_SURFACE('',#1143,0.0001);
#84=CYLINDRICAL_SURFACE('',#1145,0.0001);
#85=CYLINDRICAL_SURFACE('',#1147,0.0001);
#86=CYLINDRICAL_SURFACE('',#1149,0.0001);
#87=CYLINDRICAL_SURFACE('',#1155,0.0001);
#88=CYLINDRICAL_SURFACE('',#1157,0.0001);
#89=CYLINDRICAL_SURFACE('',#1159,0.0001);
#90=CYLINDRICAL_SURFACE('',#1161,0.0001);
#91=CYLINDRICAL_SURFACE('',#1165,0.0001);
#92=CYLINDRICAL_SURFACE('',#1167,5.E-5);
#93=CYLINDRICAL_SURFACE('',#1171,5.E-5);
#94=CYLINDRICAL_SURFACE('',#1177,4.99999999999993E-5);
#95=CYLINDRICAL_SURFACE('',#1181,5.E-5);
#96=CYLINDRICAL_SURFACE('',#1190,5.E-5);
#97=CYLINDRICAL_SURFACE('',#1194,5.E-5);
#98=CYLINDRICAL_SURFACE('',#1200,4.99999999999993E-5);
#99=CYLINDRICAL_SURFACE('',#1204,5.E-5);
#100=ORIENTED_EDGE('',*,*,#396,.T.);
#101=ORIENTED_EDGE('',*,*,#397,.T.);
#102=ORIENTED_EDGE('',*,*,#398,.T.);
#103=ORIENTED_EDGE('',*,*,#399,.T.);
#104=ORIENTED_EDGE('',*,*,#400,.T.);
#105=ORIENTED_EDGE('',*,*,#401,.T.);
#106=ORIENTED_EDGE('',*,*,#402,.T.);
#107=ORIENTED_EDGE('',*,*,#403,.T.);
#108=ORIENTED_EDGE('',*,*,#404,.T.);
#109=ORIENTED_EDGE('',*,*,#405,.T.);
#110=ORIENTED_EDGE('',*,*,#406,.T.);
#111=ORIENTED_EDGE('',*,*,#407,.T.);
#112=ORIENTED_EDGE('',*,*,#408,.T.);
#113=ORIENTED_EDGE('',*,*,#409,.T.);
#114=ORIENTED_EDGE('',*,*,#410,.T.);
#115=ORIENTED_EDGE('',*,*,#411,.T.);
#116=ORIENTED_EDGE('',*,*,#412,.T.);
#117=ORIENTED_EDGE('',*,*,#413,.T.);
#118=ORIENTED_EDGE('',*,*,#414,.F.);
#119=ORIENTED_EDGE('',*,*,#415,.T.);
#120=ORIENTED_EDGE('',*,*,#416,.T.);
#121=ORIENTED_EDGE('',*,*,#417,.T.);
#122=ORIENTED_EDGE('',*,*,#418,.T.);
#123=ORIENTED_EDGE('',*,*,#419,.T.);
#124=ORIENTED_EDGE('',*,*,#420,.T.);
#125=ORIENTED_EDGE('',*,*,#421,.T.);
#126=ORIENTED_EDGE('',*,*,#422,.T.);
#127=ORIENTED_EDGE('',*,*,#423,.T.);
#128=ORIENTED_EDGE('',*,*,#424,.T.);
#129=ORIENTED_EDGE('',*,*,#425,.T.);
#130=ORIENTED_EDGE('',*,*,#426,.T.);
#131=ORIENTED_EDGE('',*,*,#427,.T.);
#132=ORIENTED_EDGE('',*,*,#428,.T.);
#133=ORIENTED_EDGE('',*,*,#429,.T.);
#134=ORIENTED_EDGE('',*,*,#430,.T.);
#135=ORIENTED_EDGE('',*,*,#431,.T.);
#136=ORIENTED_EDGE('',*,*,#432,.T.);
#137=ORIENTED_EDGE('',*,*,#433,.T.);
#138=ORIENTED_EDGE('',*,*,#434,.T.);
#139=ORIENTED_EDGE('',*,*,#435,.T.);
#140=ORIENTED_EDGE('',*,*,#434,.F.);
#141=ORIENTED_EDGE('',*,*,#436,.T.);
#142=ORIENTED_EDGE('',*,*,#412,.F.);
#143=ORIENTED_EDGE('',*,*,#437,.T.);
#144=ORIENTED_EDGE('',*,*,#414,.T.);
#145=ORIENTED_EDGE('',*,*,#438,.T.);
#146=ORIENTED_EDGE('',*,*,#416,.F.);
#147=ORIENTED_EDGE('',*,*,#439,.T.);
#148=ORIENTED_EDGE('',*,*,#440,.F.);
#149=ORIENTED_EDGE('',*,*,#400,.F.);
#150=ORIENTED_EDGE('',*,*,#441,.F.);
#151=ORIENTED_EDGE('',*,*,#420,.F.);
#152=ORIENTED_EDGE('',*,*,#442,.F.);
#153=ORIENTED_EDGE('',*,*,#399,.F.);
#154=ORIENTED_EDGE('',*,*,#443,.F.);
#155=ORIENTED_EDGE('',*,*,#419,.F.);
#156=ORIENTED_EDGE('',*,*,#441,.T.);
#157=ORIENTED_EDGE('',*,*,#442,.T.);
#158=ORIENTED_EDGE('',*,*,#444,.F.);
#159=ORIENTED_EDGE('',*,*,#445,.F.);
#160=ORIENTED_EDGE('',*,*,#440,.T.);
#161=ORIENTED_EDGE('',*,*,#446,.F.);
#162=ORIENTED_EDGE('',*,*,#443,.T.);
#163=ORIENTED_EDGE('',*,*,#398,.F.);
#164=ORIENTED_EDGE('',*,*,#447,.F.);
#165=ORIENTED_EDGE('',*,*,#439,.F.);
#166=ORIENTED_EDGE('',*,*,#444,.T.);
#167=ORIENTED_EDGE('',*,*,#418,.F.);
#168=ORIENTED_EDGE('',*,*,#448,.F.);
#169=ORIENTED_EDGE('',*,*,#421,.F.);
#170=ORIENTED_EDGE('',*,*,#449,.F.);
#171=ORIENTED_EDGE('',*,*,#422,.F.);
#172=ORIENTED_EDGE('',*,*,#450,.F.);
#173=ORIENTED_EDGE('',*,*,#410,.F.);
#174=ORIENTED_EDGE('',*,*,#446,.T.);
#175=ORIENTED_EDGE('',*,*,#423,.F.);
#176=ORIENTED_EDGE('',*,*,#451,.F.);
#177=ORIENTED_EDGE('',*,*,#430,.F.);
#178=ORIENTED_EDGE('',*,*,#445,.T.);
#179=ORIENTED_EDGE('',*,*,#429,.F.);
#180=ORIENTED_EDGE('',*,*,#452,.F.);
#181=ORIENTED_EDGE('',*,*,#401,.F.);
#182=ORIENTED_EDGE('',*,*,#447,.T.);
#183=ORIENTED_EDGE('',*,*,#397,.F.);
#184=ORIENTED_EDGE('',*,*,#453,.F.);
#185=ORIENTED_EDGE('',*,*,#415,.F.);
#186=ORIENTED_EDGE('',*,*,#450,.T.);
#187=ORIENTED_EDGE('',*,*,#448,.T.);
#188=ORIENTED_EDGE('',*,*,#454,.F.);
#189=ORIENTED_EDGE('',*,*,#451,.T.);
#190=ORIENTED_EDGE('',*,*,#449,.T.);
#191=ORIENTED_EDGE('',*,*,#455,.F.);
#192=ORIENTED_EDGE('',*,*,#456,.F.);
#193=ORIENTED_EDGE('',*,*,#452,.T.);
#194=ORIENTED_EDGE('',*,*,#457,.F.);
#195=ORIENTED_EDGE('',*,*,#453,.T.);
#196=ORIENTED_EDGE('',*,*,#396,.F.);
#197=ORIENTED_EDGE('',*,*,#458,.F.);
#198=ORIENTED_EDGE('',*,*,#437,.F.);
#199=ORIENTED_EDGE('',*,*,#454,.T.);
#200=ORIENTED_EDGE('',*,*,#417,.F.);
#201=ORIENTED_EDGE('',*,*,#459,.F.);
#202=ORIENTED_EDGE('',*,*,#411,.F.);
#203=ORIENTED_EDGE('',*,*,#455,.T.);
#204=ORIENTED_EDGE('',*,*,#409,.F.);
#205=ORIENTED_EDGE('',*,*,#460,.F.);
#206=ORIENTED_EDGE('',*,*,#431,.F.);
#207=ORIENTED_EDGE('',*,*,#457,.T.);
#208=ORIENTED_EDGE('',*,*,#428,.F.);
#209=ORIENTED_EDGE('',*,*,#461,.F.);
#210=ORIENTED_EDGE('',*,*,#427,.F.);
#211=ORIENTED_EDGE('',*,*,#456,.T.);
#212=ORIENTED_EDGE('',*,*,#426,.F.);
#213=ORIENTED_EDGE('',*,*,#462,.F.);
#214=ORIENTED_EDGE('',*,*,#402,.F.);
#215=ORIENTED_EDGE('',*,*,#458,.T.);
#216=ORIENTED_EDGE('',*,*,#403,.F.);
#217=ORIENTED_EDGE('',*,*,#463,.F.);
#218=ORIENTED_EDGE('',*,*,#435,.F.);
#219=ORIENTED_EDGE('',*,*,#459,.T.);
#220=ORIENTED_EDGE('',*,*,#438,.F.);
#221=ORIENTED_EDGE('',*,*,#464,.F.);
#222=ORIENTED_EDGE('',*,*,#404,.F.);
#223=ORIENTED_EDGE('',*,*,#461,.T.);
#224=ORIENTED_EDGE('',*,*,#460,.T.);
#225=ORIENTED_EDGE('',*,*,#465,.F.);
#226=ORIENTED_EDGE('',*,*,#463,.T.);
#227=ORIENTED_EDGE('',*,*,#462,.T.);
#228=ORIENTED_EDGE('',*,*,#466,.F.);
#229=ORIENTED_EDGE('',*,*,#464,.T.);
#230=ORIENTED_EDGE('',*,*,#413,.F.);
#231=ORIENTED_EDGE('',*,*,#467,.F.);
#232=ORIENTED_EDGE('',*,*,#405,.F.);
#233=ORIENTED_EDGE('',*,*,#465,.T.);
#234=ORIENTED_EDGE('',*,*,#408,.F.);
#235=ORIENTED_EDGE('',*,*,#468,.F.);
#236=ORIENTED_EDGE('',*,*,#424,.F.);
#237=ORIENTED_EDGE('',*,*,#466,.T.);
#238=ORIENTED_EDGE('',*,*,#425,.F.);
#239=ORIENTED_EDGE('',*,*,#469,.F.);
#240=ORIENTED_EDGE('',*,*,#432,.F.);
#241=ORIENTED_EDGE('',*,*,#467,.T.);
#242=ORIENTED_EDGE('',*,*,#436,.F.);
#243=ORIENTED_EDGE('',*,*,#470,.F.);
#244=ORIENTED_EDGE('',*,*,#406,.F.);
#245=ORIENTED_EDGE('',*,*,#469,.T.);
#246=ORIENTED_EDGE('',*,*,#468,.T.);
#247=ORIENTED_EDGE('',*,*,#471,.F.);
#248=ORIENTED_EDGE('',*,*,#470,.T.);
#249=ORIENTED_EDGE('',*,*,#433,.F.);
#250=ORIENTED_EDGE('',*,*,#471,.T.);
#251=ORIENTED_EDGE('',*,*,#407,.F.);
#252=ORIENTED_EDGE('',*,*,#472,.T.);
#253=ORIENTED_EDGE('',*,*,#473,.F.);
#254=ORIENTED_EDGE('',*,*,#474,.F.);
#255=ORIENTED_EDGE('',*,*,#475,.T.);
#256=ORIENTED_EDGE('',*,*,#476,.T.);
#257=ORIENTED_EDGE('',*,*,#477,.F.);
#258=ORIENTED_EDGE('',*,*,#478,.F.);
#259=ORIENTED_EDGE('',*,*,#473,.T.);
#260=ORIENTED_EDGE('',*,*,#479,.F.);
#261=ORIENTED_EDGE('',*,*,#480,.F.);
#262=ORIENTED_EDGE('',*,*,#481,.T.);
#263=ORIENTED_EDGE('',*,*,#477,.T.);
#264=ORIENTED_EDGE('',*,*,#482,.T.);
#265=ORIENTED_EDGE('',*,*,#483,.F.);
#266=ORIENTED_EDGE('',*,*,#484,.F.);
#267=ORIENTED_EDGE('',*,*,#480,.T.);
#268=ORIENTED_EDGE('',*,*,#485,.T.);
#269=ORIENTED_EDGE('',*,*,#486,.F.);
#270=ORIENTED_EDGE('',*,*,#487,.F.);
#271=ORIENTED_EDGE('',*,*,#483,.T.);
#272=ORIENTED_EDGE('',*,*,#488,.T.);
#273=ORIENTED_EDGE('',*,*,#489,.F.);
#274=ORIENTED_EDGE('',*,*,#490,.F.);
#275=ORIENTED_EDGE('',*,*,#486,.T.);
#276=ORIENTED_EDGE('',*,*,#491,.T.);
#277=ORIENTED_EDGE('',*,*,#492,.F.);
#278=ORIENTED_EDGE('',*,*,#493,.F.);
#279=ORIENTED_EDGE('',*,*,#489,.T.);
#280=ORIENTED_EDGE('',*,*,#494,.T.);
#281=ORIENTED_EDGE('',*,*,#495,.F.);
#282=ORIENTED_EDGE('',*,*,#496,.F.);
#283=ORIENTED_EDGE('',*,*,#492,.T.);
#284=ORIENTED_EDGE('',*,*,#497,.F.);
#285=ORIENTED_EDGE('',*,*,#498,.F.);
#286=ORIENTED_EDGE('',*,*,#499,.T.);
#287=ORIENTED_EDGE('',*,*,#495,.T.);
#288=ORIENTED_EDGE('',*,*,#500,.F.);
#289=ORIENTED_EDGE('',*,*,#501,.F.);
#290=ORIENTED_EDGE('',*,*,#502,.T.);
#291=ORIENTED_EDGE('',*,*,#498,.T.);
#292=ORIENTED_EDGE('',*,*,#503,.F.);
#293=ORIENTED_EDGE('',*,*,#504,.F.);
#294=ORIENTED_EDGE('',*,*,#505,.T.);
#295=ORIENTED_EDGE('',*,*,#501,.T.);
#296=ORIENTED_EDGE('',*,*,#506,.F.);
#297=ORIENTED_EDGE('',*,*,#475,.F.);
#298=ORIENTED_EDGE('',*,*,#507,.T.);
#299=ORIENTED_EDGE('',*,*,#504,.T.);
#300=ORIENTED_EDGE('',*,*,#474,.T.);
#301=ORIENTED_EDGE('',*,*,#478,.T.);
#302=ORIENTED_EDGE('',*,*,#481,.F.);
#303=ORIENTED_EDGE('',*,*,#484,.T.);
#304=ORIENTED_EDGE('',*,*,#487,.T.);
#305=ORIENTED_EDGE('',*,*,#490,.T.);
#306=ORIENTED_EDGE('',*,*,#493,.T.);
#307=ORIENTED_EDGE('',*,*,#496,.T.);
#308=ORIENTED_EDGE('',*,*,#499,.F.);
#309=ORIENTED_EDGE('',*,*,#502,.F.);
#310=ORIENTED_EDGE('',*,*,#505,.F.);
#311=ORIENTED_EDGE('',*,*,#507,.F.);
#312=ORIENTED_EDGE('',*,*,#472,.F.);
#313=ORIENTED_EDGE('',*,*,#506,.T.);
#314=ORIENTED_EDGE('',*,*,#503,.T.);
#315=ORIENTED_EDGE('',*,*,#500,.T.);
#316=ORIENTED_EDGE('',*,*,#497,.T.);
#317=ORIENTED_EDGE('',*,*,#494,.F.);
#318=ORIENTED_EDGE('',*,*,#491,.F.);
#319=ORIENTED_EDGE('',*,*,#488,.F.);
#320=ORIENTED_EDGE('',*,*,#485,.F.);
#321=ORIENTED_EDGE('',*,*,#482,.F.);
#322=ORIENTED_EDGE('',*,*,#479,.T.);
#323=ORIENTED_EDGE('',*,*,#476,.F.);
#324=ORIENTED_EDGE('',*,*,#508,.F.);
#325=ORIENTED_EDGE('',*,*,#509,.F.);
#326=ORIENTED_EDGE('',*,*,#510,.T.);
#327=ORIENTED_EDGE('',*,*,#511,.T.);
#328=ORIENTED_EDGE('',*,*,#512,.F.);
#329=ORIENTED_EDGE('',*,*,#511,.F.);
#330=ORIENTED_EDGE('',*,*,#513,.T.);
#331=ORIENTED_EDGE('',*,*,#514,.T.);
#332=ORIENTED_EDGE('',*,*,#515,.T.);
#333=ORIENTED_EDGE('',*,*,#514,.F.);
#334=ORIENTED_EDGE('',*,*,#516,.F.);
#335=ORIENTED_EDGE('',*,*,#517,.T.);
#336=ORIENTED_EDGE('',*,*,#518,.F.);
#337=ORIENTED_EDGE('',*,*,#517,.F.);
#338=ORIENTED_EDGE('',*,*,#519,.T.);
#339=ORIENTED_EDGE('',*,*,#520,.T.);
#340=ORIENTED_EDGE('',*,*,#521,.F.);
#341=ORIENTED_EDGE('',*,*,#520,.F.);
#342=ORIENTED_EDGE('',*,*,#522,.T.);
#343=ORIENTED_EDGE('',*,*,#523,.T.);
#344=ORIENTED_EDGE('',*,*,#524,.F.);
#345=ORIENTED_EDGE('',*,*,#523,.F.);
#346=ORIENTED_EDGE('',*,*,#525,.T.);
#347=ORIENTED_EDGE('',*,*,#526,.T.);
#348=ORIENTED_EDGE('',*,*,#527,.F.);
#349=ORIENTED_EDGE('',*,*,#526,.F.);
#350=ORIENTED_EDGE('',*,*,#528,.T.);
#351=ORIENTED_EDGE('',*,*,#529,.T.);
#352=ORIENTED_EDGE('',*,*,#530,.F.);
#353=ORIENTED_EDGE('',*,*,#529,.F.);
#354=ORIENTED_EDGE('',*,*,#531,.T.);
#355=ORIENTED_EDGE('',*,*,#532,.T.);
#356=ORIENTED_EDGE('',*,*,#533,.T.);
#357=ORIENTED_EDGE('',*,*,#532,.F.);
#358=ORIENTED_EDGE('',*,*,#534,.F.);
#359=ORIENTED_EDGE('',*,*,#535,.T.);
#360=ORIENTED_EDGE('',*,*,#536,.T.);
#361=ORIENTED_EDGE('',*,*,#535,.F.);
#362=ORIENTED_EDGE('',*,*,#537,.F.);
#363=ORIENTED_EDGE('',*,*,#538,.T.);
#364=ORIENTED_EDGE('',*,*,#539,.T.);
#365=ORIENTED_EDGE('',*,*,#538,.F.);
#366=ORIENTED_EDGE('',*,*,#540,.F.);
#367=ORIENTED_EDGE('',*,*,#541,.T.);
#368=ORIENTED_EDGE('',*,*,#542,.T.);
#369=ORIENTED_EDGE('',*,*,#541,.F.);
#370=ORIENTED_EDGE('',*,*,#543,.F.);
#371=ORIENTED_EDGE('',*,*,#509,.T.);
#372=ORIENTED_EDGE('',*,*,#510,.F.);
#373=ORIENTED_EDGE('',*,*,#543,.T.);
#374=ORIENTED_EDGE('',*,*,#540,.T.);
#375=ORIENTED_EDGE('',*,*,#537,.T.);
#376=ORIENTED_EDGE('',*,*,#534,.T.);
#377=ORIENTED_EDGE('',*,*,#531,.F.);
#378=ORIENTED_EDGE('',*,*,#528,.F.);
#379=ORIENTED_EDGE('',*,*,#525,.F.);
#380=ORIENTED_EDGE('',*,*,#522,.F.);
#381=ORIENTED_EDGE('',*,*,#519,.F.);
#382=ORIENTED_EDGE('',*,*,#516,.T.);
#383=ORIENTED_EDGE('',*,*,#513,.F.);
#384=ORIENTED_EDGE('',*,*,#508,.T.);
#385=ORIENTED_EDGE('',*,*,#512,.T.);
#386=ORIENTED_EDGE('',*,*,#515,.F.);
#387=ORIENTED_EDGE('',*,*,#518,.T.);
#388=ORIENTED_EDGE('',*,*,#521,.T.);
#389=ORIENTED_EDGE('',*,*,#524,.T.);
#390=ORIENTED_EDGE('',*,*,#527,.T.);
#391=ORIENTED_EDGE('',*,*,#530,.T.);
#392=ORIENTED_EDGE('',*,*,#533,.F.);
#393=ORIENTED_EDGE('',*,*,#536,.F.);
#394=ORIENTED_EDGE('',*,*,#539,.F.);
#395=ORIENTED_EDGE('',*,*,#542,.F.);
#396=EDGE_CURVE('',#544,#545,#632,.T.);
#397=EDGE_CURVE('',#545,#546,#633,.F.);
#398=EDGE_CURVE('',#546,#547,#634,.F.);
#399=EDGE_CURVE('',#547,#548,#635,.F.);
#400=EDGE_CURVE('',#548,#549,#636,.F.);
#401=EDGE_CURVE('',#549,#550,#637,.T.);
#402=EDGE_CURVE('',#550,#551,#638,.T.);
#403=EDGE_CURVE('',#551,#544,#639,.F.);
#404=EDGE_CURVE('',#552,#553,#640,.F.);
#405=EDGE_CURVE('',#553,#554,#641,.T.);
#406=EDGE_CURVE('',#554,#555,#642,.T.);
#407=EDGE_CURVE('',#555,#556,#643,.T.);
#408=EDGE_CURVE('',#556,#557,#644,.F.);
#409=EDGE_CURVE('',#557,#558,#645,.F.);
#410=EDGE_CURVE('',#558,#559,#646,.T.);
#411=EDGE_CURVE('',#559,#552,#647,.T.);
#412=EDGE_CURVE('',#560,#561,#648,.T.);
#413=EDGE_CURVE('',#561,#562,#649,.F.);
#414=EDGE_CURVE('',#563,#562,#650,.T.);
#415=EDGE_CURVE('',#563,#560,#651,.T.);
#416=EDGE_CURVE('',#564,#565,#652,.T.);
#417=EDGE_CURVE('',#565,#566,#653,.F.);
#418=EDGE_CURVE('',#566,#567,#654,.T.);
#419=EDGE_CURVE('',#567,#564,#655,.T.);
#420=EDGE_CURVE('',#568,#569,#656,.T.);
#421=EDGE_CURVE('',#569,#570,#657,.F.);
#422=EDGE_CURVE('',#570,#571,#658,.F.);
#423=EDGE_CURVE('',#571,#568,#659,.T.);
#424=EDGE_CURVE('',#572,#573,#660,.T.);
#425=EDGE_CURVE('',#573,#574,#661,.T.);
#426=EDGE_CURVE('',#574,#575,#662,.F.);
#427=EDGE_CURVE('',#575,#572,#663,.F.);
#428=EDGE_CURVE('',#576,#577,#664,.T.);
#429=EDGE_CURVE('',#577,#578,#665,.F.);
#430=EDGE_CURVE('',#578,#579,#666,.F.);
#431=EDGE_CURVE('',#579,#576,#667,.T.);
#432=EDGE_CURVE('',#580,#581,#668,.F.);
#433=EDGE_CURVE('',#581,#582,#669,.F.);
#434=EDGE_CURVE('',#582,#583,#670,.T.);
#435=EDGE_CURVE('',#583,#580,#671,.T.);
#436=EDGE_CURVE('',#582,#561,#672,.F.);
#437=EDGE_CURVE('',#560,#583,#673,.F.);
#438=EDGE_CURVE('',#562,#565,#674,.F.);
#439=EDGE_CURVE('',#564,#563,#675,.F.);
#440=EDGE_CURVE('',#549,#568,#32,.T.);
#441=EDGE_CURVE('',#569,#548,#33,.T.);
#442=EDGE_CURVE('',#548,#567,#34,.T.);
#443=EDGE_CURVE('',#564,#547,#24,.F.);
#444=EDGE_CURVE('',#569,#567,#35,.F.);
#445=EDGE_CURVE('',#549,#578,#36,.F.);
#446=EDGE_CURVE('',#578,#568,#37,.F.);
#447=EDGE_CURVE('',#563,#546,#25,.F.);
#448=EDGE_CURVE('',#570,#566,#38,.T.);
#449=EDGE_CURVE('',#571,#558,#39,.T.);
#450=EDGE_CURVE('',#559,#570,#40,.T.);
#451=EDGE_CURVE('',#579,#571,#41,.T.);
#452=EDGE_CURVE('',#550,#577,#42,.T.);
#453=EDGE_CURVE('',#560,#545,#26,.F.);
#454=EDGE_CURVE('',#559,#566,#43,.F.);
#455=EDGE_CURVE('',#579,#558,#44,.F.);
#456=EDGE_CURVE('',#550,#575,#45,.F.);
#457=EDGE_CURVE('',#575,#577,#46,.F.);
#458=EDGE_CURVE('',#583,#544,#27,.F.);
#459=EDGE_CURVE('',#552,#565,#28,.T.);
#460=EDGE_CURVE('',#576,#557,#47,.T.);
#461=EDGE_CURVE('',#572,#576,#48,.T.);
#462=EDGE_CURVE('',#551,#574,#49,.T.);
#463=EDGE_CURVE('',#580,#551,#50,.T.);
#464=EDGE_CURVE('',#553,#562,#29,.T.);
#465=EDGE_CURVE('',#572,#557,#51,.F.);
#466=EDGE_CURVE('',#580,#574,#52,.F.);
#467=EDGE_CURVE('',#554,#561,#30,.T.);
#468=EDGE_CURVE('',#573,#556,#53,.T.);
#469=EDGE_CURVE('',#581,#573,#54,.T.);
#470=EDGE_CURVE('',#555,#582,#31,.T.);
#471=EDGE_CURVE('',#581,#556,#55,.F.);
#472=EDGE_CURVE('',#584,#585,#56,.T.);
#473=EDGE_CURVE('',#586,#585,#676,.T.);
#474=EDGE_CURVE('',#587,#586,#57,.T.);
#475=EDGE_CURVE('',#587,#584,#677,.T.);
#476=EDGE_CURVE('',#585,#588,#678,.T.);
#477=EDGE_CURVE('',#589,#588,#679,.T.);
#478=EDGE_CURVE('',#586,#589,#680,.T.);
#479=EDGE_CURVE('',#590,#588,#58,.T.);
#480=EDGE_CURVE('',#591,#590,#681,.T.);
#481=EDGE_CURVE('',#591,#589,#59,.T.);
#482=EDGE_CURVE('',#590,#592,#682,.T.);
#483=EDGE_CURVE('',#593,#592,#683,.T.);
#484=EDGE_CURVE('',#591,#593,#684,.T.);
#485=EDGE_CURVE('',#592,#594,#685,.T.);
#486=EDGE_CURVE('',#595,#594,#686,.T.);
#487=EDGE_CURVE('',#593,#595,#687,.T.);
#488=EDGE_CURVE('',#594,#596,#688,.T.);
#489=EDGE_CURVE('',#597,#596,#689,.T.);
#490=EDGE_CURVE('',#595,#597,#690,.T.);
#491=EDGE_CURVE('',#596,#598,#60,.T.);
#492=EDGE_CURVE('',#599,#598,#691,.T.);
#493=EDGE_CURVE('',#597,#599,#61,.T.);
#494=EDGE_CURVE('',#598,#600,#692,.T.);
#495=EDGE_CURVE('',#601,#600,#693,.T.);
#496=EDGE_CURVE('',#599,#601,#694,.T.);
#497=EDGE_CURVE('',#602,#600,#62,.T.);
#498=EDGE_CURVE('',#603,#602,#695,.T.);
#499=EDGE_CURVE('',#603,#601,#63,.T.);
#500=EDGE_CURVE('',#604,#602,#696,.T.);
#501=EDGE_CURVE('',#605,#604,#697,.T.);
#502=EDGE_CURVE('',#605,#603,#698,.T.);
#503=EDGE_CURVE('',#606,#604,#699,.T.);
#504=EDGE_CURVE('',#607,#606,#700,.T.);
#505=EDGE_CURVE('',#607,#605,#701,.T.);
#506=EDGE_CURVE('',#584,#606,#702,.T.);
#507=EDGE_CURVE('',#587,#607,#703,.T.);
#508=EDGE_CURVE('',#608,#609,#64,.T.);
#509=EDGE_CURVE('',#610,#608,#704,.T.);
#510=EDGE_CURVE('',#610,#611,#65,.T.);
#511=EDGE_CURVE('',#611,#609,#705,.T.);
#512=EDGE_CURVE('',#609,#612,#706,.T.);
#513=EDGE_CURVE('',#611,#613,#707,.T.);
#514=EDGE_CURVE('',#613,#612,#708,.T.);
#515=EDGE_CURVE('',#614,#612,#66,.T.);
#516=EDGE_CURVE('',#615,#613,#67,.T.);
#517=EDGE_CURVE('',#615,#614,#709,.T.);
#518=EDGE_CURVE('',#614,#616,#710,.T.);
#519=EDGE_CURVE('',#615,#617,#711,.T.);
#520=EDGE_CURVE('',#617,#616,#712,.T.);
#521=EDGE_CURVE('',#616,#618,#713,.T.);
#522=EDGE_CURVE('',#617,#619,#714,.T.);
#523=EDGE_CURVE('',#619,#618,#715,.T.);
#524=EDGE_CURVE('',#618,#620,#716,.T.);
#525=EDGE_CURVE('',#619,#621,#717,.T.);
#526=EDGE_CURVE('',#621,#620,#718,.T.);
#527=EDGE_CURVE('',#620,#622,#68,.T.);
#528=EDGE_CURVE('',#621,#623,#69,.T.);
#529=EDGE_CURVE('',#623,#622,#719,.T.);
#530=EDGE_CURVE('',#622,#624,#720,.T.);
#531=EDGE_CURVE('',#623,#625,#721,.T.);
#532=EDGE_CURVE('',#625,#624,#722,.T.);
#533=EDGE_CURVE('',#626,#624,#70,.T.);
#534=EDGE_CURVE('',#627,#625,#71,.T.);
#535=EDGE_CURVE('',#627,#626,#723,.T.);
#536=EDGE_CURVE('',#628,#626,#724,.T.);
#537=EDGE_CURVE('',#629,#627,#725,.T.);
#538=EDGE_CURVE('',#629,#628,#726,.T.);
#539=EDGE_CURVE('',#630,#628,#727,.T.);
#540=EDGE_CURVE('',#631,#629,#728,.T.);
#541=EDGE_CURVE('',#631,#630,#729,.T.);
#542=EDGE_CURVE('',#608,#630,#730,.T.);
#543=EDGE_CURVE('',#610,#631,#731,.T.);
#544=VERTEX_POINT('',#1549);
#545=VERTEX_POINT('',#1550);
#546=VERTEX_POINT('',#1552);
#547=VERTEX_POINT('',#1554);
#548=VERTEX_POINT('',#1556);
#549=VERTEX_POINT('',#1558);
#550=VERTEX_POINT('',#1560);
#551=VERTEX_POINT('',#1562);
#552=VERTEX_POINT('',#1566);
#553=VERTEX_POINT('',#1567);
#554=VERTEX_POINT('',#1569);
#555=VERTEX_POINT('',#1571);
#556=VERTEX_POINT('',#1573);
#557=VERTEX_POINT('',#1575);
#558=VERTEX_POINT('',#1577);
#559=VERTEX_POINT('',#1579);
#560=VERTEX_POINT('',#1583);
#561=VERTEX_POINT('',#1584);
#562=VERTEX_POINT('',#1586);
#563=VERTEX_POINT('',#1588);
#564=VERTEX_POINT('',#1592);
#565=VERTEX_POINT('',#1593);
#566=VERTEX_POINT('',#1595);
#567=VERTEX_POINT('',#1597);
#568=VERTEX_POINT('',#1601);
#569=VERTEX_POINT('',#1602);
#570=VERTEX_POINT('',#1604);
#571=VERTEX_POINT('',#1606);
#572=VERTEX_POINT('',#1610);
#573=VERTEX_POINT('',#1611);
#574=VERTEX_POINT('',#1613);
#575=VERTEX_POINT('',#1615);
#576=VERTEX_POINT('',#1619);
#577=VERTEX_POINT('',#1620);
#578=VERTEX_POINT('',#1622);
#579=VERTEX_POINT('',#1624);
#580=VERTEX_POINT('',#1628);
#581=VERTEX_POINT('',#1629);
#582=VERTEX_POINT('',#1631);
#583=VERTEX_POINT('',#1633);
#584=VERTEX_POINT('',#1704);
#585=VERTEX_POINT('',#1705);
#586=VERTEX_POINT('',#1707);
#587=VERTEX_POINT('',#1709);
#588=VERTEX_POINT('',#1713);
#589=VERTEX_POINT('',#1715);
#590=VERTEX_POINT('',#1719);
#591=VERTEX_POINT('',#1721);
#592=VERTEX_POINT('',#1725);
#593=VERTEX_POINT('',#1727);
#594=VERTEX_POINT('',#1731);
#595=VERTEX_POINT('',#1733);
#596=VERTEX_POINT('',#1737);
#597=VERTEX_POINT('',#1739);
#598=VERTEX_POINT('',#1743);
#599=VERTEX_POINT('',#1745);
#600=VERTEX_POINT('',#1749);
#601=VERTEX_POINT('',#1751);
#602=VERTEX_POINT('',#1755);
#603=VERTEX_POINT('',#1757);
#604=VERTEX_POINT('',#1761);
#605=VERTEX_POINT('',#1763);
#606=VERTEX_POINT('',#1767);
#607=VERTEX_POINT('',#1769);
#608=VERTEX_POINT('',#1779);
#609=VERTEX_POINT('',#1780);
#610=VERTEX_POINT('',#1782);
#611=VERTEX_POINT('',#1784);
#612=VERTEX_POINT('',#1788);
#613=VERTEX_POINT('',#1790);
#614=VERTEX_POINT('',#1794);
#615=VERTEX_POINT('',#1796);
#616=VERTEX_POINT('',#1800);
#617=VERTEX_POINT('',#1802);
#618=VERTEX_POINT('',#1806);
#619=VERTEX_POINT('',#1808);
#620=VERTEX_POINT('',#1812);
#621=VERTEX_POINT('',#1814);
#622=VERTEX_POINT('',#1818);
#623=VERTEX_POINT('',#1820);
#624=VERTEX_POINT('',#1824);
#625=VERTEX_POINT('',#1826);
#626=VERTEX_POINT('',#1830);
#627=VERTEX_POINT('',#1832);
#628=VERTEX_POINT('',#1836);
#629=VERTEX_POINT('',#1838);
#630=VERTEX_POINT('',#1842);
#631=VERTEX_POINT('',#1844);
#632=LINE('',#1548,#732);
#633=LINE('',#1551,#733);
#634=LINE('',#1553,#734);
#635=LINE('',#1555,#735);
#636=LINE('',#1557,#736);
#637=LINE('',#1559,#737);
#638=LINE('',#1561,#738);
#639=LINE('',#1563,#739);
#640=LINE('',#1565,#740);
#641=LINE('',#1568,#741);
#642=LINE('',#1570,#742);
#643=LINE('',#1572,#743);
#644=LINE('',#1574,#744);
#645=LINE('',#1576,#745);
#646=LINE('',#1578,#746);
#647=LINE('',#1580,#747);
#648=LINE('',#1582,#748);
#649=LINE('',#1585,#749);
#650=LINE('',#1587,#750);
#651=LINE('',#1589,#751);
#652=LINE('',#1591,#752);
#653=LINE('',#1594,#753);
#654=LINE('',#1596,#754);
#655=LINE('',#1598,#755);
#656=LINE('',#1600,#756);
#657=LINE('',#1603,#757);
#658=LINE('',#1605,#758);
#659=LINE('',#1607,#759);
#660=LINE('',#1609,#760);
#661=LINE('',#1612,#761);
#662=LINE('',#1614,#762);
#663=LINE('',#1616,#763);
#664=LINE('',#1618,#764);
#665=LINE('',#1621,#765);
#666=LINE('',#1623,#766);
#667=LINE('',#1625,#767);
#668=LINE('',#1627,#768);
#669=LINE('',#1630,#769);
#670=LINE('',#1632,#770);
#671=LINE('',#1634,#771);
#672=LINE('',#1636,#772);
#673=LINE('',#1637,#773);
#674=LINE('',#1639,#774);
#675=LINE('',#1640,#775);
#676=LINE('',#1706,#776);
#677=LINE('',#1710,#777);
#678=LINE('',#1712,#778);
#679=LINE('',#1714,#779);
#680=LINE('',#1716,#780);
#681=LINE('',#1720,#781);
#682=LINE('',#1724,#782);
#683=LINE('',#1726,#783);
#684=LINE('',#1728,#784);
#685=LINE('',#1730,#785);
#686=LINE('',#1732,#786);
#687=LINE('',#1734,#787);
#688=LINE('',#1736,#788);
#689=LINE('',#1738,#789);
#690=LINE('',#1740,#790);
#691=LINE('',#1744,#791);
#692=LINE('',#1748,#792);
#693=LINE('',#1750,#793);
#694=LINE('',#1752,#794);
#695=LINE('',#1756,#795);
#696=LINE('',#1760,#796);
#697=LINE('',#1762,#797);
#698=LINE('',#1764,#798);
#699=LINE('',#1766,#799);
#700=LINE('',#1768,#800);
#701=LINE('',#1770,#801);
#702=LINE('',#1772,#802);
#703=LINE('',#1773,#803);
#704=LINE('',#1781,#804);
#705=LINE('',#1785,#805);
#706=LINE('',#1787,#806);
#707=LINE('',#1789,#807);
#708=LINE('',#1791,#808);
#709=LINE('',#1797,#809);
#710=LINE('',#1799,#810);
#711=LINE('',#1801,#811);
#712=LINE('',#1803,#812);
#713=LINE('',#1805,#813);
#714=LINE('',#1807,#814);
#715=LINE('',#1809,#815);
#716=LINE('',#1811,#816);
#717=LINE('',#1813,#817);
#718=LINE('',#1815,#818);
#719=LINE('',#1821,#819);
#720=LINE('',#1823,#820);
#721=LINE('',#1825,#821);
#722=LINE('',#1827,#822);
#723=LINE('',#1833,#823);
#724=LINE('',#1835,#824);
#725=LINE('',#1837,#825);
#726=LINE('',#1839,#826);
#727=LINE('',#1841,#827);
#728=LINE('',#1843,#828);
#729=LINE('',#1845,#829);
#730=LINE('',#1847,#830);
#731=LINE('',#1848,#831);
#732=VECTOR('',#1216,1.);
#733=VECTOR('',#1217,1.);
#734=VECTOR('',#1218,1.);
#735=VECTOR('',#1219,1.);
#736=VECTOR('',#1220,1.);
#737=VECTOR('',#1221,1.);
#738=VECTOR('',#1222,1.);
#739=VECTOR('',#1223,1.);
#740=VECTOR('',#1226,1.);
#741=VECTOR('',#1227,1.);
#742=VECTOR('',#1228,1.);
#743=VECTOR('',#1229,1.);
#744=VECTOR('',#1230,1.);
#745=VECTOR('',#1231,1.);
#746=VECTOR('',#1232,1.);
#747=VECTOR('',#1233,1.);
#748=VECTOR('',#1236,1.);
#749=VECTOR('',#1237,1.);
#750=VECTOR('',#1238,1.);
#751=VECTOR('',#1239,1.);
#752=VECTOR('',#1242,1.);
#753=VECTOR('',#1243,1.);
#754=VECTOR('',#1244,1.);
#755=VECTOR('',#1245,1.);
#756=VECTOR('',#1248,1.);
#757=VECTOR('',#1249,1.);
#758=VECTOR('',#1250,1.);
#759=VECTOR('',#1251,1.);
#760=VECTOR('',#1254,1.);
#761=VECTOR('',#1255,1.);
#762=VECTOR('',#1256,1.);
#763=VECTOR('',#1257,1.);
#764=VECTOR('',#1260,1.);
#765=VECTOR('',#1261,1.);
#766=VECTOR('',#1262,1.);
#767=VECTOR('',#1263,1.);
#768=VECTOR('',#1266,1.);
#769=VECTOR('',#1267,1.);
#770=VECTOR('',#1268,1.);
#771=VECTOR('',#1269,1.);
#772=VECTOR('',#1272,1.);
#773=VECTOR('',#1273,1.);
#774=VECTOR('',#1276,1.);
#775=VECTOR('',#1277,1.);
#776=VECTOR('',#1404,1.);
#777=VECTOR('',#1407,1.);
#778=VECTOR('',#1410,1.);
#779=VECTOR('',#1411,1.);
#780=VECTOR('',#1412,1.);
#781=VECTOR('',#1417,1.);
#782=VECTOR('',#1422,1.);
#783=VECTOR('',#1423,1.);
#784=VECTOR('',#1424,1.);
#785=VECTOR('',#1427,1.);
#786=VECTOR('',#1428,1.);
#787=VECTOR('',#1429,1.);
#788=VECTOR('',#1432,1.);
#789=VECTOR('',#1433,1.);
#790=VECTOR('',#1434,1.);
#791=VECTOR('',#1439,1.);
#792=VECTOR('',#1444,1.);
#793=VECTOR('',#1445,1.);
#794=VECTOR('',#1446,1.);
#795=VECTOR('',#1451,1.);
#796=VECTOR('',#1456,1.);
#797=VECTOR('',#1457,1.);
#798=VECTOR('',#1458,1.);
#799=VECTOR('',#1461,1.);
#800=VECTOR('',#1462,1.);
#801=VECTOR('',#1463,1.);
#802=VECTOR('',#1466,1.);
#803=VECTOR('',#1467,1.);
#804=VECTOR('',#1478,1.);
#805=VECTOR('',#1481,1.);
#806=VECTOR('',#1484,1.);
#807=VECTOR('',#1485,1.);
#808=VECTOR('',#1486,1.);
#809=VECTOR('',#1493,1.);
#810=VECTOR('',#1496,1.);
#811=VECTOR('',#1497,1.);
#812=VECTOR('',#1498,1.);
#813=VECTOR('',#1501,1.);
#814=VECTOR('',#1502,1.);
#815=VECTOR('',#1503,1.);
#816=VECTOR('',#1506,1.);
#817=VECTOR('',#1507,1.);
#818=VECTOR('',#1508,1.);
#819=VECTOR('',#1515,1.);
#820=VECTOR('',#1518,1.);
#821=VECTOR('',#1519,1.);
#822=VECTOR('',#1520,1.);
#823=VECTOR('',#1527,1.);
#824=VECTOR('',#1530,1.);
#825=VECTOR('',#1531,1.);
#826=VECTOR('',#1532,1.);
#827=VECTOR('',#1535,1.);
#828=VECTOR('',#1536,1.);
#829=VECTOR('',#1537,1.);
#830=VECTOR('',#1540,1.);
#831=VECTOR('',#1541,1.);
#832=EDGE_LOOP('',(#100,#101,#102,#103,#104,#105,#106,#107));
#833=EDGE_LOOP('',(#108,#109,#110,#111,#112,#113,#114,#115));
#834=EDGE_LOOP('',(#116,#117,#118,#119));
#835=EDGE_LOOP('',(#120,#121,#122,#123));
#836=EDGE_LOOP('',(#124,#125,#126,#127));
#837=EDGE_LOOP('',(#128,#129,#130,#131));
#838=EDGE_LOOP('',(#132,#133,#134,#135));
#839=EDGE_LOOP('',(#136,#137,#138,#139));
#840=EDGE_LOOP('',(#140,#141,#142,#143));
#841=EDGE_LOOP('',(#144,#145,#146,#147));
#842=EDGE_LOOP('',(#148,#149,#150,#151));
#843=EDGE_LOOP('',(#152,#153,#154,#155));
#844=EDGE_LOOP('',(#156,#157,#158));
#845=EDGE_LOOP('',(#159,#160,#161));
#846=EDGE_LOOP('',(#162,#163,#164,#165));
#847=EDGE_LOOP('',(#166,#167,#168,#169));
#848=EDGE_LOOP('',(#170,#171,#172,#173));
#849=EDGE_LOOP('',(#174,#175,#176,#177));
#850=EDGE_LOOP('',(#178,#179,#180,#181));
#851=EDGE_LOOP('',(#182,#183,#184,#185));
#852=EDGE_LOOP('',(#186,#187,#188));
#853=EDGE_LOOP('',(#189,#190,#191));
#854=EDGE_LOOP('',(#192,#193,#194));
#855=EDGE_LOOP('',(#195,#196,#197,#198));
#856=EDGE_LOOP('',(#199,#200,#201,#202));
#857=EDGE_LOOP('',(#203,#204,#205,#206));
#858=EDGE_LOOP('',(#207,#208,#209,#210));
#859=EDGE_LOOP('',(#211,#212,#213,#214));
#860=EDGE_LOOP('',(#215,#216,#217,#218));
#861=EDGE_LOOP('',(#219,#220,#221,#222));
#862=EDGE_LOOP('',(#223,#224,#225));
#863=EDGE_LOOP('',(#226,#227,#228));
#864=EDGE_LOOP('',(#229,#230,#231,#232));
#865=EDGE_LOOP('',(#233,#234,#235,#236));
#866=EDGE_LOOP('',(#237,#238,#239,#240));
#867=EDGE_LOOP('',(#241,#242,#243,#244));
#868=EDGE_LOOP('',(#245,#246,#247));
#869=EDGE_LOOP('',(#248,#249,#250,#251));
#870=EDGE_LOOP('',(#252,#253,#254,#255));
#871=EDGE_LOOP('',(#256,#257,#258,#259));
#872=EDGE_LOOP('',(#260,#261,#262,#263));
#873=EDGE_LOOP('',(#264,#265,#266,#267));
#874=EDGE_LOOP('',(#268,#269,#270,#271));
#875=EDGE_LOOP('',(#272,#273,#274,#275));
#876=EDGE_LOOP('',(#276,#277,#278,#279));
#877=EDGE_LOOP('',(#280,#281,#282,#283));
#878=EDGE_LOOP('',(#284,#285,#286,#287));
#879=EDGE_LOOP('',(#288,#289,#290,#291));
#880=EDGE_LOOP('',(#292,#293,#294,#295));
#881=EDGE_LOOP('',(#296,#297,#298,#299));
#882=EDGE_LOOP('',(#300,#301,#302,#303,#304,#305,#306,#307,#308,#309,#310,
#311));
#883=EDGE_LOOP('',(#312,#313,#314,#315,#316,#317,#318,#319,#320,#321,#322,
#323));
#884=EDGE_LOOP('',(#324,#325,#326,#327));
#885=EDGE_LOOP('',(#328,#329,#330,#331));
#886=EDGE_LOOP('',(#332,#333,#334,#335));
#887=EDGE_LOOP('',(#336,#337,#338,#339));
#888=EDGE_LOOP('',(#340,#341,#342,#343));
#889=EDGE_LOOP('',(#344,#345,#346,#347));
#890=EDGE_LOOP('',(#348,#349,#350,#351));
#891=EDGE_LOOP('',(#352,#353,#354,#355));
#892=EDGE_LOOP('',(#356,#357,#358,#359));
#893=EDGE_LOOP('',(#360,#361,#362,#363));
#894=EDGE_LOOP('',(#364,#365,#366,#367));
#895=EDGE_LOOP('',(#368,#369,#370,#371));
#896=EDGE_LOOP('',(#372,#373,#374,#375,#376,#377,#378,#379,#380,#381,#382,
#383));
#897=EDGE_LOOP('',(#384,#385,#386,#387,#388,#389,#390,#391,#392,#393,#394,
#395));
#898=FACE_BOUND('',#832,.T.);
#899=FACE_BOUND('',#833,.T.);
#900=FACE_BOUND('',#834,.T.);
#901=FACE_BOUND('',#835,.T.);
#902=FACE_BOUND('',#836,.T.);
#903=FACE_BOUND('',#837,.T.);
#904=FACE_BOUND('',#838,.T.);
#905=FACE_BOUND('',#839,.T.);
#906=FACE_BOUND('',#840,.T.);
#907=FACE_BOUND('',#841,.T.);
#908=FACE_BOUND('',#842,.T.);
#909=FACE_BOUND('',#843,.T.);
#910=FACE_BOUND('',#844,.T.);
#911=FACE_BOUND('',#845,.T.);
#912=FACE_BOUND('',#846,.T.);
#913=FACE_BOUND('',#847,.T.);
#914=FACE_BOUND('',#848,.T.);
#915=FACE_BOUND('',#849,.T.);
#916=FACE_BOUND('',#850,.T.);
#917=FACE_BOUND('',#851,.T.);
#918=FACE_BOUND('',#852,.T.);
#919=FACE_BOUND('',#853,.T.);
#920=FACE_BOUND('',#854,.T.);
#921=FACE_BOUND('',#855,.T.);
#922=FACE_BOUND('',#856,.T.);
#923=FACE_BOUND('',#857,.T.);
#924=FACE_BOUND('',#858,.T.);
#925=FACE_BOUND('',#859,.T.);
#926=FACE_BOUND('',#860,.T.);
#927=FACE_BOUND('',#861,.T.);
#928=FACE_BOUND('',#862,.T.);
#929=FACE_BOUND('',#863,.T.);
#930=FACE_BOUND('',#864,.T.);
#931=FACE_BOUND('',#865,.T.);
#932=FACE_BOUND('',#866,.T.);
#933=FACE_BOUND('',#867,.T.);
#934=FACE_BOUND('',#868,.T.);
#935=FACE_BOUND('',#869,.T.);
#936=FACE_BOUND('',#870,.T.);
#937=FACE_BOUND('',#871,.T.);
#938=FACE_BOUND('',#872,.T.);
#939=FACE_BOUND('',#873,.T.);
#940=FACE_BOUND('',#874,.T.);
#941=FACE_BOUND('',#875,.T.);
#942=FACE_BOUND('',#876,.T.);
#943=FACE_BOUND('',#877,.T.);
#944=FACE_BOUND('',#878,.T.);
#945=FACE_BOUND('',#879,.T.);
#946=FACE_BOUND('',#880,.T.);
#947=FACE_BOUND('',#881,.T.);
#948=FACE_BOUND('',#882,.T.);
#949=FACE_BOUND('',#883,.T.);
#950=FACE_BOUND('',#884,.T.);
#951=FACE_BOUND('',#885,.T.);
#952=FACE_BOUND('',#886,.T.);
#953=FACE_BOUND('',#887,.T.);
#954=FACE_BOUND('',#888,.T.);
#955=FACE_BOUND('',#889,.T.);
#956=FACE_BOUND('',#890,.T.);
#957=FACE_BOUND('',#891,.T.);
#958=FACE_BOUND('',#892,.T.);
#959=FACE_BOUND('',#893,.T.);
#960=FACE_BOUND('',#894,.T.);
#961=FACE_BOUND('',#895,.T.);
#962=FACE_BOUND('',#896,.T.);
#963=FACE_BOUND('',#897,.T.);
#964=PLANE('',#1096);
#965=PLANE('',#1097);
#966=PLANE('',#1098);
#967=PLANE('',#1099);
#968=PLANE('',#1100);
#969=PLANE('',#1101);
#970=PLANE('',#1102);
#971=PLANE('',#1103);
#972=PLANE('',#1104);
#973=PLANE('',#1105);
#974=PLANE('',#1170);
#975=PLANE('',#1174);
#976=PLANE('',#1175);
#977=PLANE('',#1176);
#978=PLANE('',#1180);
#979=PLANE('',#1184);
#980=PLANE('',#1185);
#981=PLANE('',#1186);
#982=PLANE('',#1187);
#983=PLANE('',#1188);
#984=PLANE('',#1193);
#985=PLANE('',#1197);
#986=PLANE('',#1198);
#987=PLANE('',#1199);
#988=PLANE('',#1203);
#989=PLANE('',#1207);
#990=PLANE('',#1208);
#991=PLANE('',#1209);
#992=PLANE('',#1210);
#993=PLANE('',#1211);
#994=ADVANCED_FACE('',(#898),#964,.T.);
#995=ADVANCED_FACE('',(#899),#965,.F.);
#996=ADVANCED_FACE('',(#900),#966,.F.);
#997=ADVANCED_FACE('',(#901),#967,.F.);
#998=ADVANCED_FACE('',(#902),#968,.T.);
#999=ADVANCED_FACE('',(#903),#969,.F.);
#1000=ADVANCED_FACE('',(#904),#970,.T.);
#1001=ADVANCED_FACE('',(#905),#971,.F.);
#1002=ADVANCED_FACE('',(#906),#972,.F.);
#1003=ADVANCED_FACE('',(#907),#973,.T.);
#1004=ADVANCED_FACE('',(#908),#72,.T.);
#1005=ADVANCED_FACE('',(#909),#73,.T.);
#1006=ADVANCED_FACE('',(#910),#16,.T.);
#1007=ADVANCED_FACE('',(#911),#17,.T.);
#1008=ADVANCED_FACE('',(#912),#74,.T.);
#1009=ADVANCED_FACE('',(#913),#75,.T.);
#1010=ADVANCED_FACE('',(#914),#76,.T.);
#1011=ADVANCED_FACE('',(#915),#77,.T.);
#1012=ADVANCED_FACE('',(#916),#78,.T.);
#1013=ADVANCED_FACE('',(#917),#79,.T.);
#1014=ADVANCED_FACE('',(#918),#18,.T.);
#1015=ADVANCED_FACE('',(#919),#19,.T.);
#1016=ADVANCED_FACE('',(#920),#20,.T.);
#1017=ADVANCED_FACE('',(#921),#80,.T.);
#1018=ADVANCED_FACE('',(#922),#81,.T.);
#1019=ADVANCED_FACE('',(#923),#82,.T.);
#1020=ADVANCED_FACE('',(#924),#83,.T.);
#1021=ADVANCED_FACE('',(#925),#84,.T.);
#1022=ADVANCED_FACE('',(#926),#85,.T.);
#1023=ADVANCED_FACE('',(#927),#86,.T.);
#1024=ADVANCED_FACE('',(#928),#21,.T.);
#1025=ADVANCED_FACE('',(#929),#22,.T.);
#1026=ADVANCED_FACE('',(#930),#87,.T.);
#1027=ADVANCED_FACE('',(#931),#88,.T.);
#1028=ADVANCED_FACE('',(#932),#89,.T.);
#1029=ADVANCED_FACE('',(#933),#90,.T.);
#1030=ADVANCED_FACE('',(#934),#23,.T.);
#1031=ADVANCED_FACE('',(#935),#91,.T.);
#1032=ADVANCED_FACE('',(#936),#92,.T.);
#1033=ADVANCED_FACE('',(#937),#974,.F.);
#1034=ADVANCED_FACE('',(#938),#93,.F.);
#1035=ADVANCED_FACE('',(#939),#975,.F.);
#1036=ADVANCED_FACE('',(#940),#976,.F.);
#1037=ADVANCED_FACE('',(#941),#977,.F.);
#1038=ADVANCED_FACE('',(#942),#94,.T.);
#1039=ADVANCED_FACE('',(#943),#978,.F.);
#1040=ADVANCED_FACE('',(#944),#95,.F.);
#1041=ADVANCED_FACE('',(#945),#979,.T.);
#1042=ADVANCED_FACE('',(#946),#980,.T.);
#1043=ADVANCED_FACE('',(#947),#981,.T.);
#1044=ADVANCED_FACE('',(#948),#982,.T.);
#1045=ADVANCED_FACE('',(#949),#983,.F.);
#1046=ADVANCED_FACE('',(#950),#96,.T.);
#1047=ADVANCED_FACE('',(#951),#984,.F.);
#1048=ADVANCED_FACE('',(#952),#97,.F.);
#1049=ADVANCED_FACE('',(#953),#985,.F.);
#1050=ADVANCED_FACE('',(#954),#986,.F.);
#1051=ADVANCED_FACE('',(#955),#987,.F.);
#1052=ADVANCED_FACE('',(#956),#98,.T.);
#1053=ADVANCED_FACE('',(#957),#988,.F.);
#1054=ADVANCED_FACE('',(#958),#99,.F.);
#1055=ADVANCED_FACE('',(#959),#989,.T.);
#1056=ADVANCED_FACE('',(#960),#990,.T.);
#1057=ADVANCED_FACE('',(#961),#991,.T.);
#1058=ADVANCED_FACE('',(#962),#992,.T.);
#1059=ADVANCED_FACE('',(#963),#993,.F.);
#1060=CLOSED_SHELL('',(#994,#995,#996,#997,#998,#999,#1000,#1001,#1002,
#1003,#1004,#1005,#1006,#1007,#1008,#1009,#1010,#1011,#1012,#1013,#1014,
#1015,#1016,#1017,#1018,#1019,#1020,#1021,#1022,#1023,#1024,#1025,#1026,
#1027,#1028,#1029,#1030,#1031));
#1061=CLOSED_SHELL('',(#1032,#1033,#1034,#1035,#1036,#1037,#1038,#1039,
#1040,#1041,#1042,#1043,#1044,#1045));
#1062=CLOSED_SHELL('',(#1046,#1047,#1048,#1049,#1050,#1051,#1052,#1053,
#1054,#1055,#1056,#1057,#1058,#1059));
#1063=STYLED_ITEM('',(#1066),#1086);
#1064=STYLED_ITEM('',(#1067),#1087);
#1065=STYLED_ITEM('',(#1068),#1088);
#1066=PRESENTATION_STYLE_ASSIGNMENT((#1069));
#1067=PRESENTATION_STYLE_ASSIGNMENT((#1070));
#1068=PRESENTATION_STYLE_ASSIGNMENT((#1071));
#1069=SURFACE_STYLE_USAGE(.BOTH.,#1072);
#1070=SURFACE_STYLE_USAGE(.BOTH.,#1073);
#1071=SURFACE_STYLE_USAGE(.BOTH.,#1074);
#1072=SURFACE_SIDE_STYLE('',(#1075));
#1073=SURFACE_SIDE_STYLE('',(#1076));
#1074=SURFACE_SIDE_STYLE('',(#1077));
#1075=SURFACE_STYLE_FILL_AREA(#1078);
#1076=SURFACE_STYLE_FILL_AREA(#1079);
#1077=SURFACE_STYLE_FILL_AREA(#1080);
#1078=FILL_AREA_STYLE('',(#1081));
#1079=FILL_AREA_STYLE('',(#1082));
#1080=FILL_AREA_STYLE('',(#1083));
#1081=FILL_AREA_STYLE_COLOUR('',#1084);
#1082=FILL_AREA_STYLE_COLOUR('',#1085);
#1083=FILL_AREA_STYLE_COLOUR('',#1085);
#1084=COLOUR_RGB('',0.262745098039216,0.282352941176471,0.301960784313725);
#1085=COLOUR_RGB('',0.901960784313726,0.901960784313726,0.901960784313726);
#1086=MANIFOLD_SOLID_BREP('Body',#1060);
#1087=MANIFOLD_SOLID_BREP('Leg',#1061);
#1088=MANIFOLD_SOLID_BREP('Part 3',#1062);
#1089=SHAPE_DEFINITION_REPRESENTATION(#1869,#1092);
#1090=SHAPE_DEFINITION_REPRESENTATION(#1870,#1093);
#1091=SHAPE_DEFINITION_REPRESENTATION(#1871,#1094);
#1092=SHAPE_REPRESENTATION('Body',(#1095),#1854);
#1093=SHAPE_REPRESENTATION('Leg',(#1166),#1855);
#1094=SHAPE_REPRESENTATION('Part 3',(#1189),#1856);
#1095=AXIS2_PLACEMENT_3D('',#1546,#1212,#1213);
#1096=AXIS2_PLACEMENT_3D('',#1547,#1214,#1215);
#1097=AXIS2_PLACEMENT_3D('',#1564,#1224,#1225);
#1098=AXIS2_PLACEMENT_3D('',#1581,#1234,#1235);
#1099=AXIS2_PLACEMENT_3D('',#1590,#1240,#1241);
#1100=AXIS2_PLACEMENT_3D('',#1599,#1246,#1247);
#1101=AXIS2_PLACEMENT_3D('',#1608,#1252,#1253);
#1102=AXIS2_PLACEMENT_3D('',#1617,#1258,#1259);
#1103=AXIS2_PLACEMENT_3D('',#1626,#1264,#1265);
#1104=AXIS2_PLACEMENT_3D('',#1635,#1270,#1271);
#1105=AXIS2_PLACEMENT_3D('',#1638,#1274,#1275);
#1106=AXIS2_PLACEMENT_3D('',#1641,#1278,#1279);
#1107=AXIS2_PLACEMENT_3D('',#1642,#1280,#1281);
#1108=AXIS2_PLACEMENT_3D('',#1643,#1282,#1283);
#1109=AXIS2_PLACEMENT_3D('',#1644,#1284,#1285);
#1110=AXIS2_PLACEMENT_3D('',#1645,#1286,#1287);
#1111=AXIS2_PLACEMENT_3D('',#1646,#1288,#1289);
#1112=AXIS2_PLACEMENT_3D('',#1647,#1290,#1291);
#1113=AXIS2_PLACEMENT_3D('',#1648,#1292,#1293);
#1114=AXIS2_PLACEMENT_3D('',#1649,#1294,#1295);
#1115=AXIS2_PLACEMENT_3D('',#1650,#1296,#1297);
#1116=AXIS2_PLACEMENT_3D('',#1651,#1298,#1299);
#1117=AXIS2_PLACEMENT_3D('',#1652,#1300,#1301);
#1118=AXIS2_PLACEMENT_3D('',#1653,#1302,#1303);
#1119=AXIS2_PLACEMENT_3D('',#1654,#1304,#1305);
#1120=AXIS2_PLACEMENT_3D('',#1655,#1306,#1307);
#1121=AXIS2_PLACEMENT_3D('',#1656,#1308,#1309);
#1122=AXIS2_PLACEMENT_3D('',#1657,#1310,#1311);
#1123=AXIS2_PLACEMENT_3D('',#1658,#1312,#1313);
#1124=AXIS2_PLACEMENT_3D('',#1659,#1314,#1315);
#1125=AXIS2_PLACEMENT_3D('',#1660,#1316,#1317);
#1126=AXIS2_PLACEMENT_3D('',#1661,#1318,#1319);
#1127=AXIS2_PLACEMENT_3D('',#1662,#1320,#1321);
#1128=AXIS2_PLACEMENT_3D('',#1663,#1322,#1323);
#1129=AXIS2_PLACEMENT_3D('',#1664,#1324,#1325);
#1130=AXIS2_PLACEMENT_3D('',#1665,#1326,#1327);
#1131=AXIS2_PLACEMENT_3D('',#1666,#1328,#1329);
#1132=AXIS2_PLACEMENT_3D('',#1667,#1330,#1331);
#1133=AXIS2_PLACEMENT_3D('',#1668,#1332,#1333);
#1134=AXIS2_PLACEMENT_3D('',#1669,#1334,#1335);
#1135=AXIS2_PLACEMENT_3D('',#1670,#1336,#1337);
#1136=AXIS2_PLACEMENT_3D('',#1671,#1338,#1339);
#1137=AXIS2_PLACEMENT_3D('',#1672,#1340,#1341);
#1138=AXIS2_PLACEMENT_3D('',#1673,#1342,#1343);
#1139=AXIS2_PLACEMENT_3D('',#1674,#1344,#1345);
#1140=AXIS2_PLACEMENT_3D('',#1675,#1346,#1347);
#1141=AXIS2_PLACEMENT_3D('',#1676,#1348,#1349);
#1142=AXIS2_PLACEMENT_3D('',#1677,#1350,#1351);
#1143=AXIS2_PLACEMENT_3D('',#1678,#1352,#1353);
#1144=AXIS2_PLACEMENT_3D('',#1679,#1354,#1355);
#1145=AXIS2_PLACEMENT_3D('',#1680,#1356,#1357);
#1146=AXIS2_PLACEMENT_3D('',#1681,#1358,#1359);
#1147=AXIS2_PLACEMENT_3D('',#1682,#1360,#1361);
#1148=AXIS2_PLACEMENT_3D('',#1683,#1362,#1363);
#1149=AXIS2_PLACEMENT_3D('',#1684,#1364,#1365);
#1150=AXIS2_PLACEMENT_3D('',#1685,#1366,#1367);
#1151=AXIS2_PLACEMENT_3D('',#1686,#1368,#1369);
#1152=AXIS2_PLACEMENT_3D('',#1687,#1370,#1371);
#1153=AXIS2_PLACEMENT_3D('',#1688,#1372,#1373);
#1154=AXIS2_PLACEMENT_3D('',#1689,#1374,#1375);
#1155=AXIS2_PLACEMENT_3D('',#1690,#1376,#1377);
#1156=AXIS2_PLACEMENT_3D('',#1691,#1378,#1379);
#1157=AXIS2_PLACEMENT_3D('',#1692,#1380,#1381);
#1158=AXIS2_PLACEMENT_3D('',#1693,#1382,#1383);
#1159=AXIS2_PLACEMENT_3D('',#1694,#1384,#1385);
#1160=AXIS2_PLACEMENT_3D('',#1695,#1386,#1387);
#1161=AXIS2_PLACEMENT_3D('',#1696,#1388,#1389);
#1162=AXIS2_PLACEMENT_3D('',#1697,#1390,#1391);
#1163=AXIS2_PLACEMENT_3D('',#1698,#1392,#1393);
#1164=AXIS2_PLACEMENT_3D('',#1699,#1394,#1395);
#1165=AXIS2_PLACEMENT_3D('',#1700,#1396,#1397);
#1166=AXIS2_PLACEMENT_3D('',#1701,#1398,#1399);
#1167=AXIS2_PLACEMENT_3D('',#1702,#1400,#1401);
#1168=AXIS2_PLACEMENT_3D('',#1703,#1402,#1403);
#1169=AXIS2_PLACEMENT_3D('',#1708,#1405,#1406);
#1170=AXIS2_PLACEMENT_3D('',#1711,#1408,#1409);
#1171=AXIS2_PLACEMENT_3D('',#1717,#1413,#1414);
#1172=AXIS2_PLACEMENT_3D('',#1718,#1415,#1416);
#1173=AXIS2_PLACEMENT_3D('',#1722,#1418,#1419);
#1174=AXIS2_PLACEMENT_3D('',#1723,#1420,#1421);
#1175=AXIS2_PLACEMENT_3D('',#1729,#1425,#1426);
#1176=AXIS2_PLACEMENT_3D('',#1735,#1430,#1431);
#1177=AXIS2_PLACEMENT_3D('',#1741,#1435,#1436);
#1178=AXIS2_PLACEMENT_3D('',#1742,#1437,#1438);
#1179=AXIS2_PLACEMENT_3D('',#1746,#1440,#1441);
#1180=AXIS2_PLACEMENT_3D('',#1747,#1442,#1443);
#1181=AXIS2_PLACEMENT_3D('',#1753,#1447,#1448);
#1182=AXIS2_PLACEMENT_3D('',#1754,#1449,#1450);
#1183=AXIS2_PLACEMENT_3D('',#1758,#1452,#1453);
#1184=AXIS2_PLACEMENT_3D('',#1759,#1454,#1455);
#1185=AXIS2_PLACEMENT_3D('',#1765,#1459,#1460);
#1186=AXIS2_PLACEMENT_3D('',#1771,#1464,#1465);
#1187=AXIS2_PLACEMENT_3D('',#1774,#1468,#1469);
#1188=AXIS2_PLACEMENT_3D('',#1775,#1470,#1471);
#1189=AXIS2_PLACEMENT_3D('',#1776,#1472,#1473);
#1190=AXIS2_PLACEMENT_3D('',#1777,#1474,#1475);
#1191=AXIS2_PLACEMENT_3D('',#1778,#1476,#1477);
#1192=AXIS2_PLACEMENT_3D('',#1783,#1479,#1480);
#1193=AXIS2_PLACEMENT_3D('',#1786,#1482,#1483);
#1194=AXIS2_PLACEMENT_3D('',#1792,#1487,#1488);
#1195=AXIS2_PLACEMENT_3D('',#1793,#1489,#1490);
#1196=AXIS2_PLACEMENT_3D('',#1795,#1491,#1492);
#1197=AXIS2_PLACEMENT_3D('',#1798,#1494,#1495);
#1198=AXIS2_PLACEMENT_3D('',#1804,#1499,#1500);
#1199=AXIS2_PLACEMENT_3D('',#1810,#1504,#1505);
#1200=AXIS2_PLACEMENT_3D('',#1816,#1509,#1510);
#1201=AXIS2_PLACEMENT_3D('',#1817,#1511,#1512);
#1202=AXIS2_PLACEMENT_3D('',#1819,#1513,#1514);
#1203=AXIS2_PLACEMENT_3D('',#1822,#1516,#1517);
#1204=AXIS2_PLACEMENT_3D('',#1828,#1521,#1522);
#1205=AXIS2_PLACEMENT_3D('',#1829,#1523,#1524);
#1206=AXIS2_PLACEMENT_3D('',#1831,#1525,#1526);
#1207=AXIS2_PLACEMENT_3D('',#1834,#1528,#1529);
#1208=AXIS2_PLACEMENT_3D('',#1840,#1533,#1534);
#1209=AXIS2_PLACEMENT_3D('',#1846,#1538,#1539);
#1210=AXIS2_PLACEMENT_3D('',#1849,#1542,#1543);
#1211=AXIS2_PLACEMENT_3D('',#1850,#1544,#1545);
#1212=DIRECTION('',(0.,0.,1.));
#1213=DIRECTION('',(1.,0.,0.));
#1214=DIRECTION('',(9.22725253179153E-17,0.,1.));
#1215=DIRECTION('',(1.,0.,-9.22725253179153E-17));
#1216=DIRECTION('',(0.707106781186547,-0.707106781186548,-6.52465283695052E-17));
#1217=DIRECTION('',(-1.,0.,9.22725253179153E-17));
#1218=DIRECTION('',(-0.707106781186547,-0.707106781186548,6.52465283695052E-17));
#1219=DIRECTION('',(-1.,0.,9.22725253179153E-17));
#1220=DIRECTION('',(0.,-1.,0.));
#1221=DIRECTION('',(-1.,0.,9.22725253179153E-17));
#1222=DIRECTION('',(0.,-1.,0.));
#1223=DIRECTION('',(-1.,0.,9.22725253179153E-17));
#1224=DIRECTION('',(9.22725253179153E-17,0.,1.));
#1225=DIRECTION('',(1.,0.,-9.22725253179153E-17));
#1226=DIRECTION('',(0.707106781186547,0.707106781186548,-6.52465283695052E-17));
#1227=DIRECTION('',(-1.,0.,9.22725253179153E-17));
#1228=DIRECTION('',(-0.707106781186547,0.707106781186548,6.52465283695052E-17));
#1229=DIRECTION('',(-1.,0.,9.22725253179153E-17));
#1230=DIRECTION('',(0.,-1.,0.));
#1231=DIRECTION('',(-1.,0.,9.22725253179153E-17));
#1232=DIRECTION('',(0.,-1.,0.));
#1233=DIRECTION('',(-1.,0.,9.22725253179153E-17));
#1234=DIRECTION('',(0.,1.,0.));
#1235=DIRECTION('',(1.,0.,0.));
#1236=DIRECTION('',(0.,0.,-1.));
#1237=DIRECTION('',(-1.,0.,9.22725253179153E-17));
#1238=DIRECTION('',(0.,0.,-1.));
#1239=DIRECTION('',(-1.,0.,9.22725253179153E-17));
#1240=DIRECTION('',(0.,1.,0.));
#1241=DIRECTION('',(1.,0.,0.));
#1242=DIRECTION('',(0.,0.,-1.));
#1243=DIRECTION('',(-1.,0.,9.22725253179153E-17));
#1244=DIRECTION('',(0.,0.,1.));
#1245=DIRECTION('',(-1.,0.,9.22725253179153E-17));
#1246=DIRECTION('',(1.,0.,0.));
#1247=DIRECTION('',(0.,-1.,0.));
#1248=DIRECTION('',(0.,-1.,0.));
#1249=DIRECTION('',(0.,0.,1.));
#1250=DIRECTION('',(0.,-1.,0.));
#1251=DIRECTION('',(0.,0.,1.));
#1252=DIRECTION('',(1.,0.,0.));
#1253=DIRECTION('',(0.,-1.,0.));
#1254=DIRECTION('',(0.,-1.,0.));
#1255=DIRECTION('',(0.,0.,1.));
#1256=DIRECTION('',(0.,-1.,0.));
#1257=DIRECTION('',(0.,0.,1.));
#1258=DIRECTION('',(0.,1.,0.));
#1259=DIRECTION('',(1.,0.,0.));
#1260=DIRECTION('',(0.,0.,1.));
#1261=DIRECTION('',(-1.,0.,9.22725253179153E-17));
#1262=DIRECTION('',(0.,0.,1.));
#1263=DIRECTION('',(-1.,0.,9.22725253179153E-17));
#1264=DIRECTION('',(0.,1.,0.));
#1265=DIRECTION('',(1.,0.,0.));
#1266=DIRECTION('',(0.,0.,1.));
#1267=DIRECTION('',(-1.,0.,9.22725253179153E-17));
#1268=DIRECTION('',(0.,0.,1.));
#1269=DIRECTION('',(-1.,0.,9.22725253179153E-17));
#1270=DIRECTION('',(0.707106781186548,0.707106781186547,0.));
#1271=DIRECTION('',(0.,0.,-1.));
#1272=DIRECTION('',(-0.707106781186547,0.707106781186548,6.52465283695052E-17));
#1273=DIRECTION('',(0.707106781186547,-0.707106781186548,-6.52465283695052E-17));
#1274=DIRECTION('',(0.707106781186548,-0.707106781186547,0.));
#1275=DIRECTION('',(0.,0.,1.));
#1276=DIRECTION('',(-0.707106781186547,-0.707106781186548,6.52465283695052E-17));
#1277=DIRECTION('',(0.707106781186547,0.707106781186548,-6.52465283695052E-17));
#1278=DIRECTION('',(0.,-1.,0.));
#1279=DIRECTION('',(-1.,0.,0.));
#1280=DIRECTION('',(0.,1.,0.));
#1281=DIRECTION('',(1.,0.,0.));
#1282=DIRECTION('',(0.,-1.,0.));
#1283=DIRECTION('',(-1.,0.,0.));
#1284=DIRECTION('',(1.,0.,-9.22725253179153E-17));
#1285=DIRECTION('',(-9.22725253179153E-17,0.,-1.));
#1286=DIRECTION('',(1.,0.,0.));
#1287=DIRECTION('',(0.,-1.,0.));
#1288=DIRECTION('',(0.923879532511287,0.38268343236509,-8.52486975543514E-17));
#1289=DIRECTION('',(0.38268343236509,-0.923879532511287,-3.53111667016545E-17));
#1290=DIRECTION('',(0.,0.,1.));
#1291=DIRECTION('',(0.,-1.,0.));
#1292=DIRECTION('',(0.,0.,1.));
#1293=DIRECTION('',(0.,-1.,0.));
#1294=DIRECTION('',(1.,0.,0.));
#1295=DIRECTION('',(0.,-1.,0.));
#1296=DIRECTION('',(1.,0.,0.));
#1297=DIRECTION('',(0.,-1.,0.));
#1298=DIRECTION('',(0.,0.,1.));
#1299=DIRECTION('',(0.,-1.,0.));
#1300=DIRECTION('',(0.707106781186547,0.707106781186548,-6.52465283695052E-17));
#1301=DIRECTION('',(0.707106781186548,-0.707106781186547,0.));
#1302=DIRECTION('',(0.923879532511287,0.38268343236509,-8.52486975543514E-17));
#1303=DIRECTION('',(0.38268343236509,-0.923879532511287,-3.53111667016545E-17));
#1304=DIRECTION('',(0.,0.,-1.));
#1305=DIRECTION('',(0.,1.,0.));
#1306=DIRECTION('',(0.,0.,-1.));
#1307=DIRECTION('',(0.,1.,0.));
#1308=DIRECTION('',(0.,1.,0.));
#1309=DIRECTION('',(1.,0.,0.));
#1310=DIRECTION('',(0.,1.,0.));
#1311=DIRECTION('',(1.,0.,0.));
#1312=DIRECTION('',(0.,-1.,0.));
#1313=DIRECTION('',(-1.,0.,0.));
#1314=DIRECTION('',(0.,0.,1.));
#1315=DIRECTION('',(0.,-1.,0.));
#1316=DIRECTION('',(2.16840434497102E-15,0.,-1.));
#1317=DIRECTION('',(-1.,0.,-2.16840434497102E-15));
#1318=DIRECTION('',(-1.,0.,9.22725253179153E-17));
#1319=DIRECTION('',(9.22725253179153E-17,0.,1.));
#1320=DIRECTION('',(-1.,0.,0.));
#1321=DIRECTION('',(0.,1.,0.));
#1322=DIRECTION('',(1.,0.,-9.22725253179153E-17));
#1323=DIRECTION('',(-9.22725253179153E-17,0.,-1.));
#1324=DIRECTION('',(0.923879532511287,-0.38268343236509,-8.52486975543514E-17));
#1325=DIRECTION('',(0.38268343236509,0.923879532511287,-3.53111667016545E-17));
#1326=DIRECTION('',(1.,0.,0.));
#1327=DIRECTION('',(0.,-1.,0.));
#1328=DIRECTION('',(1.,0.,0.));
#1329=DIRECTION('',(0.,-1.,0.));
#1330=DIRECTION('',(1.,0.,0.));
#1331=DIRECTION('',(0.,-1.,0.));
#1332=DIRECTION('',(1.,0.,0.));
#1333=DIRECTION('',(0.,-1.,0.));
#1334=DIRECTION('',(0.,1.,2.16840434497102E-15));
#1335=DIRECTION('',(0.,-2.16840434497102E-15,1.));
#1336=DIRECTION('',(0.,1.,0.));
#1337=DIRECTION('',(1.,0.,0.));
#1338=DIRECTION('',(-2.16840434497102E-15,0.,1.));
#1339=DIRECTION('',(1.,0.,2.16840434497102E-15));
#1340=DIRECTION('',(-0.707106781186547,0.707106781186548,6.52465283695052E-17));
#1341=DIRECTION('',(0.707106781186548,0.707106781186547,0.));
#1342=DIRECTION('',(0.923879532511287,-0.38268343236509,-8.52486975543514E-17));
#1343=DIRECTION('',(0.38268343236509,0.923879532511287,-3.53111667016545E-17));
#1344=DIRECTION('',(-1.,0.,9.22725253179153E-17));
#1345=DIRECTION('',(9.22725253179153E-17,0.,1.));
#1346=DIRECTION('',(-0.923879532511287,-0.38268343236509,8.52486975543514E-17));
#1347=DIRECTION('',(-0.38268343236509,0.923879532511287,3.53111667016545E-17));
#1348=DIRECTION('',(1.,0.,-9.22725253179153E-17));
#1349=DIRECTION('',(-9.22725253179153E-17,0.,-1.));
#1350=DIRECTION('',(-1.,0.,0.));
#1351=DIRECTION('',(0.,1.,0.));
#1352=DIRECTION('',(0.,0.,-1.));
#1353=DIRECTION('',(0.,1.,0.));
#1354=DIRECTION('',(0.,0.,-1.));
#1355=DIRECTION('',(0.,1.,0.));
#1356=DIRECTION('',(0.,1.,0.));
#1357=DIRECTION('',(1.,0.,0.));
#1358=DIRECTION('',(-8.1315162936413E-16,-1.,0.));
#1359=DIRECTION('',(-1.,8.1315162936413E-16,0.));
#1360=DIRECTION('',(1.,0.,-9.22725253179153E-17));
#1361=DIRECTION('',(-9.22725253179153E-17,0.,-1.));
#1362=DIRECTION('',(-1.,0.,0.));
#1363=DIRECTION('',(0.,1.,0.));
#1364=DIRECTION('',(0.707106781186547,0.707106781186548,-6.52465283695052E-17));
#1365=DIRECTION('',(0.707106781186548,-0.707106781186547,0.));
#1366=DIRECTION('',(-0.923879532511287,-0.38268343236509,8.52486975543514E-17));
#1367=DIRECTION('',(-0.38268343236509,0.923879532511287,3.53111667016545E-17));
#1368=DIRECTION('',(0.,1.,0.));
#1369=DIRECTION('',(1.,0.,0.));
#1370=DIRECTION('',(0.,1.,0.));
#1371=DIRECTION('',(1.,0.,0.));
#1372=DIRECTION('',(0.,0.,1.));
#1373=DIRECTION('',(0.,-1.,0.));
#1374=DIRECTION('',(0.,0.,1.));
#1375=DIRECTION('',(0.,-1.,0.));
#1376=DIRECTION('',(-1.,0.,9.22725253179153E-17));
#1377=DIRECTION('',(9.22725253179153E-17,0.,1.));
#1378=DIRECTION('',(-0.923879532511287,0.38268343236509,8.52486975543514E-17));
#1379=DIRECTION('',(-0.38268343236509,-0.923879532511287,3.53111667016545E-17));
#1380=DIRECTION('',(0.,-1.,0.));
#1381=DIRECTION('',(-1.,0.,0.));
#1382=DIRECTION('',(0.,-1.,8.13151629364128E-16));
#1383=DIRECTION('',(0.,-8.13151629364128E-16,-1.));
#1384=DIRECTION('',(0.,0.,1.));
#1385=DIRECTION('',(0.,-1.,0.));
#1386=DIRECTION('',(0.,0.,-1.));
#1387=DIRECTION('',(0.,1.,0.));
#1388=DIRECTION('',(-0.707106781186547,0.707106781186548,6.52465283695052E-17));
#1389=DIRECTION('',(0.707106781186548,0.707106781186547,0.));
#1390=DIRECTION('',(-0.923879532511287,0.38268343236509,8.52486975543514E-17));
#1391=DIRECTION('',(-0.38268343236509,-0.923879532511287,3.53111667016545E-17));
#1392=DIRECTION('',(-1.,8.1315162936413E-16,0.));
#1393=DIRECTION('',(8.1315162936413E-16,1.,0.));
#1394=DIRECTION('',(-1.,0.,0.));
#1395=DIRECTION('',(0.,1.,0.));
#1396=DIRECTION('',(-1.,0.,9.22725253179153E-17));
#1397=DIRECTION('',(9.22725253179153E-17,0.,1.));
#1398=DIRECTION('',(0.,0.,1.));
#1399=DIRECTION('',(1.,0.,0.));
#1400=DIRECTION('',(0.,0.,-1.));
#1401=DIRECTION('',(0.,1.,0.));
#1402=DIRECTION('',(0.,0.,1.));
#1403=DIRECTION('',(0.,-1.,0.));
#1404=DIRECTION('',(0.,0.,-1.));
#1405=DIRECTION('',(0.,0.,1.));
#1406=DIRECTION('',(0.,-1.,0.));
#1407=DIRECTION('',(0.,0.,-1.));
#1408=DIRECTION('',(-1.,-4.13029399042096E-16,0.));
#1409=DIRECTION('',(-4.13029399042096E-16,1.,0.));
#1410=DIRECTION('',(-4.13029399042096E-16,1.,0.));
#1411=DIRECTION('',(0.,0.,-1.));
#1412=DIRECTION('',(-4.13029399042096E-16,1.,0.));
#1413=DIRECTION('',(0.,0.,-1.));
#1414=DIRECTION('',(0.,1.,0.));
#1415=DIRECTION('',(0.,0.,1.));
#1416=DIRECTION('',(0.,-1.,0.));
#1417=DIRECTION('',(0.,0.,-1.));
#1418=DIRECTION('',(0.,0.,1.));
#1419=DIRECTION('',(0.,-1.,0.));
#1420=DIRECTION('',(0.,1.,0.));
#1421=DIRECTION('',(1.,0.,0.));
#1422=DIRECTION('',(1.,0.,0.));
#1423=DIRECTION('',(0.,0.,-1.));
#1424=DIRECTION('',(1.,0.,0.));
#1425=DIRECTION('',(-1.,0.,0.));
#1426=DIRECTION('',(0.,1.,0.));
#1427=DIRECTION('',(0.,1.,0.));
#1428=DIRECTION('',(0.,0.,-1.));
#1429=DIRECTION('',(0.,1.,0.));
#1430=DIRECTION('',(1.0842021724855E-15,-1.,0.));
#1431=DIRECTION('',(-1.,-1.0842021724855E-15,0.));
#1432=DIRECTION('',(-1.,-1.0842021724855E-15,0.));
#1433=DIRECTION('',(0.,0.,-1.));
#1434=DIRECTION('',(-1.,-1.0842021724855E-15,0.));
#1435=DIRECTION('',(0.,0.,-1.));
#1436=DIRECTION('',(0.,1.,0.));
#1437=DIRECTION('',(0.,0.,1.));
#1438=DIRECTION('',(0.,-1.,0.));
#1439=DIRECTION('',(0.,0.,-1.));
#1440=DIRECTION('',(0.,0.,1.));
#1441=DIRECTION('',(0.,-1.,0.));
#1442=DIRECTION('',(1.,0.,0.));
#1443=DIRECTION('',(0.,-1.,0.));
#1444=DIRECTION('',(0.,-1.,0.));
#1445=DIRECTION('',(0.,0.,-1.));
#1446=DIRECTION('',(0.,-1.,0.));
#1447=DIRECTION('',(0.,0.,-1.));
#1448=DIRECTION('',(0.,1.,0.));
#1449=DIRECTION('',(0.,0.,1.));
#1450=DIRECTION('',(0.,-1.,0.));
#1451=DIRECTION('',(0.,0.,-1.));
#1452=DIRECTION('',(0.,0.,1.));
#1453=DIRECTION('',(0.,-1.,0.));
#1454=DIRECTION('',(0.,1.,0.));
#1455=DIRECTION('',(1.,0.,0.));
#1456=DIRECTION('',(1.,0.,0.));
#1457=DIRECTION('',(0.,0.,-1.));
#1458=DIRECTION('',(1.,0.,0.));
#1459=DIRECTION('',(-1.,0.,0.));
#1460=DIRECTION('',(0.,1.,0.));
#1461=DIRECTION('',(0.,1.,0.));
#1462=DIRECTION('',(0.,0.,-1.));
#1463=DIRECTION('',(0.,1.,0.));
#1464=DIRECTION('',(0.,-1.,0.));
#1465=DIRECTION('',(-1.,0.,0.));
#1466=DIRECTION('',(-1.,0.,0.));
#1467=DIRECTION('',(-1.,0.,0.));
#1468=DIRECTION('',(0.,0.,1.));
#1469=DIRECTION('',(1.,0.,0.));
#1470=DIRECTION('',(0.,0.,1.));
#1471=DIRECTION('',(1.,0.,0.));
#1472=DIRECTION('',(0.,0.,1.));
#1473=DIRECTION('',(1.,0.,0.));
#1474=DIRECTION('',(0.,0.,-1.));
#1475=DIRECTION('',(0.,1.,0.));
#1476=DIRECTION('',(0.,0.,-1.));
#1477=DIRECTION('',(0.,-1.,0.));
#1478=DIRECTION('',(0.,0.,-1.));
#1479=DIRECTION('',(0.,0.,-1.));
#1480=DIRECTION('',(0.,-1.,0.));
#1481=DIRECTION('',(0.,0.,-1.));
#1482=DIRECTION('',(1.,-4.13029399042096E-16,0.));
#1483=DIRECTION('',(4.13029399042096E-16,1.,0.));
#1484=DIRECTION('',(4.13029399042096E-16,1.,0.));
#1485=DIRECTION('',(4.13029399042096E-16,1.,0.));
#1486=DIRECTION('',(0.,0.,-1.));
#1487=DIRECTION('',(0.,0.,-1.));
#1488=DIRECTION('',(0.,1.,0.));
#1489=DIRECTION('',(0.,0.,-1.));
#1490=DIRECTION('',(0.,-1.,0.));
#1491=DIRECTION('',(0.,0.,-1.));
#1492=DIRECTION('',(0.,-1.,0.));
#1493=DIRECTION('',(0.,0.,-1.));
#1494=DIRECTION('',(0.,1.,0.));
#1495=DIRECTION('',(-1.,0.,0.));
#1496=DIRECTION('',(-1.,0.,0.));
#1497=DIRECTION('',(-1.,0.,0.));
#1498=DIRECTION('',(0.,0.,-1.));
#1499=DIRECTION('',(1.,0.,0.));
#1500=DIRECTION('',(0.,1.,0.));
#1501=DIRECTION('',(0.,1.,0.));
#1502=DIRECTION('',(0.,1.,0.));
#1503=DIRECTION('',(0.,0.,-1.));
#1504=DIRECTION('',(-1.0842021724855E-15,-1.,0.));
#1505=DIRECTION('',(1.,-1.0842021724855E-15,0.));
#1506=DIRECTION('',(1.,-1.0842021724855E-15,0.));
#1507=DIRECTION('',(1.,-1.0842021724855E-15,0.));
#1508=DIRECTION('',(0.,0.,-1.));
#1509=DIRECTION('',(0.,0.,-1.));
#1510=DIRECTION('',(0.,1.,0.));
#1511=DIRECTION('',(0.,0.,-1.));
#1512=DIRECTION('',(0.,-1.,0.));
#1513=DIRECTION('',(0.,0.,-1.));
#1514=DIRECTION('',(0.,-1.,0.));
#1515=DIRECTION('',(0.,0.,-1.));
#1516=DIRECTION('',(-1.,0.,0.));
#1517=DIRECTION('',(0.,-1.,0.));
#1518=DIRECTION('',(0.,-1.,0.));
#1519=DIRECTION('',(0.,-1.,0.));
#1520=DIRECTION('',(0.,0.,-1.));
#1521=DIRECTION('',(0.,0.,-1.));
#1522=DIRECTION('',(0.,1.,0.));
#1523=DIRECTION('',(0.,0.,-1.));
#1524=DIRECTION('',(0.,-1.,0.));
#1525=DIRECTION('',(0.,0.,-1.));
#1526=DIRECTION('',(0.,-1.,0.));
#1527=DIRECTION('',(0.,0.,-1.));
#1528=DIRECTION('',(0.,1.,0.));
#1529=DIRECTION('',(-1.,0.,0.));
#1530=DIRECTION('',(-1.,0.,0.));
#1531=DIRECTION('',(-1.,0.,0.));
#1532=DIRECTION('',(0.,0.,-1.));
#1533=DIRECTION('',(1.,0.,0.));
#1534=DIRECTION('',(0.,1.,0.));
#1535=DIRECTION('',(0.,1.,0.));
#1536=DIRECTION('',(0.,1.,0.));
#1537=DIRECTION('',(0.,0.,-1.));
#1538=DIRECTION('',(0.,-1.,0.));
#1539=DIRECTION('',(1.,0.,0.));
#1540=DIRECTION('',(1.,0.,0.));
#1541=DIRECTION('',(1.,0.,0.));
#1542=DIRECTION('',(0.,0.,1.));
#1543=DIRECTION('',(-1.,0.,0.));
#1544=DIRECTION('',(0.,0.,1.));
#1545=DIRECTION('',(-1.,0.,0.));
#1546=CARTESIAN_POINT('',(0.,0.,0.));
#1547=CARTESIAN_POINT('',(0.,0.0001,0.00115));
#1548=CARTESIAN_POINT('',(-0.00227928932188134,7.07106781186551E-5,0.00115));
#1549=CARTESIAN_POINT('',(-0.00240857864376269,0.0002,0.00115));
#1550=CARTESIAN_POINT('',(-0.00230857864376269,0.0001,0.00115));
#1551=CARTESIAN_POINT('',(0.00235,0.0001,0.00115));
#1552=CARTESIAN_POINT('',(0.00230857864376269,0.0001,0.00115));
#1553=CARTESIAN_POINT('',(0.00237928932188135,0.000170710678118655,0.00115));
#1554=CARTESIAN_POINT('',(0.00240857864376269,0.0002,0.00115));
#1555=CARTESIAN_POINT('',(0.0032,0.0002,0.00115));
#1556=CARTESIAN_POINT('',(0.0031,0.0002,0.00115));
#1557=CARTESIAN_POINT('',(0.0031,0.0001,0.00115));
#1558=CARTESIAN_POINT('',(0.0031,0.0023,0.00115));
#1559=CARTESIAN_POINT('',(0.,0.0023,0.00115));
#1560=CARTESIAN_POINT('',(-0.0031,0.0023,0.00115));
#1561=CARTESIAN_POINT('',(-0.0031,0.0001,0.00115));
#1562=CARTESIAN_POINT('',(-0.0031,0.0002,0.00115));
#1563=CARTESIAN_POINT('',(-0.00245,0.0002,0.00115));
#1564=CARTESIAN_POINT('',(0.,0.0001,-0.00115));
#1565=CARTESIAN_POINT('',(0.00115428932188135,-0.00105428932188135,-0.00115));
#1566=CARTESIAN_POINT('',(0.00240857864376269,0.0002,-0.00115));
#1567=CARTESIAN_POINT('',(0.00230857864376269,0.0001,-0.00115));
#1568=CARTESIAN_POINT('',(0.,0.0001,-0.00115));
#1569=CARTESIAN_POINT('',(-0.00230857864376269,0.0001,-0.00115));
#1570=CARTESIAN_POINT('',(-0.00115428932188135,-0.00105428932188134,-0.00115));
#1571=CARTESIAN_POINT('',(-0.00240857864376269,0.0002,-0.00115));
#1572=CARTESIAN_POINT('',(0.,0.0002,-0.00115));
#1573=CARTESIAN_POINT('',(-0.0031,0.0002,-0.00115));
#1574=CARTESIAN_POINT('',(-0.0031,0.0001,-0.00115));
#1575=CARTESIAN_POINT('',(-0.0031,0.0023,-0.00115));
#1576=CARTESIAN_POINT('',(0.0032,0.0023,-0.00115));
#1577=CARTESIAN_POINT('',(0.0031,0.0023,-0.00115));
#1578=CARTESIAN_POINT('',(0.0031,0.0001,-0.00115));
#1579=CARTESIAN_POINT('',(0.0031,0.0002,-0.00115));
#1580=CARTESIAN_POINT('',(0.,0.0002,-0.00115));
#1581=CARTESIAN_POINT('',(0.,0.,8.67361737988404E-19));
#1582=CARTESIAN_POINT('',(-0.00235,0.,4.33680868994202E-19));
#1583=CARTESIAN_POINT('',(-0.00235,0.,0.00105));
#1584=CARTESIAN_POINT('',(-0.00235,0.,-0.00105));
#1585=CARTESIAN_POINT('',(-9.68861515838111E-20,0.,-0.00105));
#1586=CARTESIAN_POINT('',(0.00235,0.,-0.00105));
#1587=CARTESIAN_POINT('',(0.00235,0.,-4.33680868994202E-19));
#1588=CARTESIAN_POINT('',(0.00235,0.,0.00105));
#1589=CARTESIAN_POINT('',(-0.00235,0.,0.00105));
#1590=CARTESIAN_POINT('',(0.,0.0001,0.));
#1591=CARTESIAN_POINT('',(0.00245,0.0001,-0.00115));
#1592=CARTESIAN_POINT('',(0.00245,0.0001,0.00105));
#1593=CARTESIAN_POINT('',(0.00245,0.0001,-0.00105));
#1594=CARTESIAN_POINT('',(-9.6886151583811E-20,0.0001,-0.00105));
#1595=CARTESIAN_POINT('',(0.0031,0.0001,-0.00105));
#1596=CARTESIAN_POINT('',(0.0031,0.0001,0.00115));
#1597=CARTESIAN_POINT('',(0.0031,0.0001,0.00105));
#1598=CARTESIAN_POINT('',(0.00245,0.0001,0.00105));
#1599=CARTESIAN_POINT('',(0.0032,0.0024,-2.16840434497101E-19));
#1600=CARTESIAN_POINT('',(0.0032,0.0024,0.00105));
#1601=CARTESIAN_POINT('',(0.0032,0.0023,0.00105));
#1602=CARTESIAN_POINT('',(0.0032,0.0002,0.00105));
#1603=CARTESIAN_POINT('',(0.0032,0.0002,-0.00115));
#1604=CARTESIAN_POINT('',(0.0032,0.0002,-0.00105));
#1605=CARTESIAN_POINT('',(0.0032,0.0024,-0.00105));
#1606=CARTESIAN_POINT('',(0.0032,0.0023,-0.00105));
#1607=CARTESIAN_POINT('',(0.0032,0.0023,-2.16840434497101E-19));
#1608=CARTESIAN_POINT('',(-0.0032,0.0024,0.));
#1609=CARTESIAN_POINT('',(-0.0032,0.0024,-0.00105));
#1610=CARTESIAN_POINT('',(-0.0032,0.0023,-0.00105));
#1611=CARTESIAN_POINT('',(-0.0032,0.0002,-0.00105));
#1612=CARTESIAN_POINT('',(-0.0032,0.0002,0.));
#1613=CARTESIAN_POINT('',(-0.0032,0.0002,0.00105));
#1614=CARTESIAN_POINT('',(-0.0032,0.0024,0.00105));
#1615=CARTESIAN_POINT('',(-0.0032,0.0023,0.00105));
#1616=CARTESIAN_POINT('',(-0.0032,0.0023,-0.00115));
#1617=CARTESIAN_POINT('',(0.,0.0024,0.));
#1618=CARTESIAN_POINT('',(-0.0031,0.0024,0.00115));
#1619=CARTESIAN_POINT('',(-0.0031,0.0024,-0.00105));
#1620=CARTESIAN_POINT('',(-0.0031,0.0024,0.00105));
#1621=CARTESIAN_POINT('',(9.6886151583811E-20,0.0024,0.00105));
#1622=CARTESIAN_POINT('',(0.0031,0.0024,0.00105));
#1623=CARTESIAN_POINT('',(0.0031,0.0024,0.));
#1624=CARTESIAN_POINT('',(0.0031,0.0024,-0.00105));
#1625=CARTESIAN_POINT('',(-0.0032,0.0024,-0.00105));
#1626=CARTESIAN_POINT('',(0.,0.0001,0.));
#1627=CARTESIAN_POINT('',(-0.0031,0.0001,0.));
#1628=CARTESIAN_POINT('',(-0.0031,0.0001,0.00105));
#1629=CARTESIAN_POINT('',(-0.0031,0.0001,-0.00105));
#1630=CARTESIAN_POINT('',(-9.6886151583811E-20,0.0001,-0.00105));
#1631=CARTESIAN_POINT('',(-0.00245,0.0001,-0.00105));
#1632=CARTESIAN_POINT('',(-0.00245,0.0001,0.));
#1633=CARTESIAN_POINT('',(-0.00245,0.0001,0.00105));
#1634=CARTESIAN_POINT('',(-0.0032,0.0001,0.00105));
#1635=CARTESIAN_POINT('',(-0.00235,0.,4.33680868994202E-19));
#1636=CARTESIAN_POINT('',(-0.00235,4.84430757919056E-20,-0.00105));
#1637=CARTESIAN_POINT('',(-0.00245,0.0001,0.00105));
#1638=CARTESIAN_POINT('',(0.00245,0.0001,0.));
#1639=CARTESIAN_POINT('',(0.00245,0.0001,-0.00105));
#1640=CARTESIAN_POINT('',(0.00235,3.51684657257342E-19,0.00105));
#1641=CARTESIAN_POINT('',(0.0031,0.0024,0.00105));
#1642=CARTESIAN_POINT('',(0.0031,0.0023,0.00105));
#1643=CARTESIAN_POINT('',(0.0031,0.0002,0.00105));
#1644=CARTESIAN_POINT('',(9.6886151583811E-20,0.0002,0.00105));
#1645=CARTESIAN_POINT('',(0.0031,0.0002,0.00105));
#1646=CARTESIAN_POINT('',(0.00240857864376269,0.0002,0.00105));
#1647=CARTESIAN_POINT('',(0.0031,0.0002,0.00105));
#1648=CARTESIAN_POINT('',(0.0031,0.0002,0.00105));
#1649=CARTESIAN_POINT('',(0.0031,0.0023,0.00105));
#1650=CARTESIAN_POINT('',(0.0031,0.0023,0.00105));
#1651=CARTESIAN_POINT('',(0.0031,0.0023,0.00105));
#1652=CARTESIAN_POINT('',(0.00115428932188135,-0.00105428932188134,0.00105));
#1653=CARTESIAN_POINT('',(0.00230857864376269,0.0001,0.00105));
#1654=CARTESIAN_POINT('',(0.0031,0.0002,0.));
#1655=CARTESIAN_POINT('',(0.0031,0.0002,-0.00105));
#1656=CARTESIAN_POINT('',(0.0031,0.0001,-0.00105));
#1657=CARTESIAN_POINT('',(0.0031,0.0023,-0.00105));
#1658=CARTESIAN_POINT('',(0.0031,0.0002,-0.00105));
#1659=CARTESIAN_POINT('',(0.0031,0.0023,-2.16840434497101E-19));
#1660=CARTESIAN_POINT('',(0.0031,0.0023,-0.00105));
#1661=CARTESIAN_POINT('',(-9.22725253179153E-21,0.0023,0.00105));
#1662=CARTESIAN_POINT('',(-0.0031,0.0023,0.00105));
#1663=CARTESIAN_POINT('',(9.6886151583811E-20,0.0001,0.00105));
#1664=CARTESIAN_POINT('',(-0.00230857864376269,0.0001,0.00105));
#1665=CARTESIAN_POINT('',(0.0031,0.0002,-0.00105));
#1666=CARTESIAN_POINT('',(0.0031,0.0002,-0.00105));
#1667=CARTESIAN_POINT('',(0.0031,0.0023,-0.00105));
#1668=CARTESIAN_POINT('',(0.0031,0.0023,-0.00105));
#1669=CARTESIAN_POINT('',(-0.0031,0.0023,0.00105));
#1670=CARTESIAN_POINT('',(-0.0031,0.0023,0.00105));
#1671=CARTESIAN_POINT('',(-0.0031,0.0023,0.00105));
#1672=CARTESIAN_POINT('',(-0.00115428932188135,-0.00105428932188134,0.00105));
#1673=CARTESIAN_POINT('',(-0.00240857864376269,0.0002,0.00105));
#1674=CARTESIAN_POINT('',(9.22725253179153E-21,0.0002,-0.00105));
#1675=CARTESIAN_POINT('',(0.00240857864376269,0.0002,-0.00105));
#1676=CARTESIAN_POINT('',(-9.6886151583811E-20,0.0023,-0.00105));
#1677=CARTESIAN_POINT('',(-0.0031,0.0023,-0.00105));
#1678=CARTESIAN_POINT('',(-0.0031,0.0023,0.));
#1679=CARTESIAN_POINT('',(-0.0031,0.0023,-0.00105));
#1680=CARTESIAN_POINT('',(-0.0031,0.0001,0.00105));
#1681=CARTESIAN_POINT('',(-0.0031,0.0002,0.00105));
#1682=CARTESIAN_POINT('',(9.6886151583811E-20,0.0002,0.00105));
#1683=CARTESIAN_POINT('',(-0.0031,0.0002,0.00105));
#1684=CARTESIAN_POINT('',(0.00115428932188135,-0.00105428932188134,-0.00105));
#1685=CARTESIAN_POINT('',(0.00230857864376269,0.0001,-0.00105));
#1686=CARTESIAN_POINT('',(-0.0031,0.0023,-0.00105));
#1687=CARTESIAN_POINT('',(-0.0031,0.0023,-0.00105));
#1688=CARTESIAN_POINT('',(-0.0031,0.0002,0.00105));
#1689=CARTESIAN_POINT('',(-0.0031,0.0002,0.00105));
#1690=CARTESIAN_POINT('',(9.22725253179153E-21,0.0001,-0.00105));
#1691=CARTESIAN_POINT('',(-0.00230857864376269,0.0001,-0.00105));
#1692=CARTESIAN_POINT('',(-0.0031,0.0024,-0.00105));
#1693=CARTESIAN_POINT('',(-0.0031,0.0002,-0.00105));
#1694=CARTESIAN_POINT('',(-0.0031,0.0002,0.));
#1695=CARTESIAN_POINT('',(-0.0031,0.0002,-0.00105));
#1696=CARTESIAN_POINT('',(-0.00115428932188135,-0.00105428932188134,-0.00105));
#1697=CARTESIAN_POINT('',(-0.00240857864376269,0.0002,-0.00105));
#1698=CARTESIAN_POINT('',(-0.0031,0.0002,-0.00105));
#1699=CARTESIAN_POINT('',(-0.0031,0.0002,-0.00105));
#1700=CARTESIAN_POINT('',(9.22725253179153E-21,0.0002,-0.00105));
#1701=CARTESIAN_POINT('',(0.,0.,0.));
#1702=CARTESIAN_POINT('',(-0.0034,5.E-5,0.000475));
#1703=CARTESIAN_POINT('',(-0.0034,5.E-5,-0.000475));
#1704=CARTESIAN_POINT('',(-0.0034,0.,-0.000475));
#1705=CARTESIAN_POINT('',(-0.00335,5.E-5,-0.000475));
#1706=CARTESIAN_POINT('',(-0.00335,5.E-5,0.000475));
#1707=CARTESIAN_POINT('',(-0.00335,5.E-5,0.000475));
#1708=CARTESIAN_POINT('',(-0.0034,5.E-5,0.000475));
#1709=CARTESIAN_POINT('',(-0.0034,0.,0.000475));
#1710=CARTESIAN_POINT('',(-0.0034,0.,0.000475));
#1711=CARTESIAN_POINT('',(-0.00335,0.000575,0.000475));
#1712=CARTESIAN_POINT('',(-0.00335,0.000575,-0.000475));
#1713=CARTESIAN_POINT('',(-0.00335,0.0011,-0.000475));
#1714=CARTESIAN_POINT('',(-0.00335,0.0011,0.000475));
#1715=CARTESIAN_POINT('',(-0.00335,0.0011,0.000475));
#1716=CARTESIAN_POINT('',(-0.00335,0.000575,0.000475));
#1717=CARTESIAN_POINT('',(-0.0033,0.0011,0.000475));
#1718=CARTESIAN_POINT('',(-0.0033,0.0011,-0.000475));
#1719=CARTESIAN_POINT('',(-0.0033,0.00115,-0.000475));
#1720=CARTESIAN_POINT('',(-0.0033,0.00115,0.000475));
#1721=CARTESIAN_POINT('',(-0.0033,0.00115,0.000475));
#1722=CARTESIAN_POINT('',(-0.0033,0.0011,0.000475));
#1723=CARTESIAN_POINT('',(-0.00325,0.00115,0.000475));
#1724=CARTESIAN_POINT('',(-0.00325,0.00115,-0.000475));
#1725=CARTESIAN_POINT('',(-0.0032,0.00115,-0.000475));
#1726=CARTESIAN_POINT('',(-0.0032,0.00115,0.000475));
#1727=CARTESIAN_POINT('',(-0.0032,0.00115,0.000475));
#1728=CARTESIAN_POINT('',(-0.00325,0.00115,0.000475));
#1729=CARTESIAN_POINT('',(-0.0032,0.0012,0.000475));
#1730=CARTESIAN_POINT('',(-0.0032,0.0012,-0.000475));
#1731=CARTESIAN_POINT('',(-0.0032,0.00125,-0.000475));
#1732=CARTESIAN_POINT('',(-0.0032,0.00125,0.000475));
#1733=CARTESIAN_POINT('',(-0.0032,0.00125,0.000475));
#1734=CARTESIAN_POINT('',(-0.0032,0.0012,0.000475));
#1735=CARTESIAN_POINT('',(-0.0033,0.00125,0.000475));
#1736=CARTESIAN_POINT('',(-0.0033,0.00125,-0.000475));
#1737=CARTESIAN_POINT('',(-0.0034,0.00125,-0.000475));
#1738=CARTESIAN_POINT('',(-0.0034,0.00125,0.000475));
#1739=CARTESIAN_POINT('',(-0.0034,0.00125,0.000475));
#1740=CARTESIAN_POINT('',(-0.0033,0.00125,0.000475));
#1741=CARTESIAN_POINT('',(-0.0034,0.0012,0.000475));
#1742=CARTESIAN_POINT('',(-0.0034,0.0012,-0.000475));
#1743=CARTESIAN_POINT('',(-0.00345,0.0012,-0.000475));
#1744=CARTESIAN_POINT('',(-0.00345,0.0012,0.000475));
#1745=CARTESIAN_POINT('',(-0.00345,0.0012,0.000475));
#1746=CARTESIAN_POINT('',(-0.0034,0.0012,0.000475));
#1747=CARTESIAN_POINT('',(-0.00345,0.000675,0.000475));
#1748=CARTESIAN_POINT('',(-0.00345,0.000675,-0.000475));
#1749=CARTESIAN_POINT('',(-0.00345,0.00015,-0.000475));
#1750=CARTESIAN_POINT('',(-0.00345,0.00015,0.000475));
#1751=CARTESIAN_POINT('',(-0.00345,0.00015,0.000475));
#1752=CARTESIAN_POINT('',(-0.00345,0.000675,0.000475));
#1753=CARTESIAN_POINT('',(-0.0035,0.00015,0.000475));
#1754=CARTESIAN_POINT('',(-0.0035,0.00015,-0.000475));
#1755=CARTESIAN_POINT('',(-0.0035,0.0001,-0.000475));
#1756=CARTESIAN_POINT('',(-0.0035,0.0001,0.000475));
#1757=CARTESIAN_POINT('',(-0.0035,0.0001,0.000475));
#1758=CARTESIAN_POINT('',(-0.0035,0.00015,0.000475));
#1759=CARTESIAN_POINT('',(-0.004125,0.0001,0.000475));
#1760=CARTESIAN_POINT('',(-0.004125,0.0001,-0.000475));
#1761=CARTESIAN_POINT('',(-0.00475,0.0001,-0.000475));
#1762=CARTESIAN_POINT('',(-0.00475,0.0001,0.000475));
#1763=CARTESIAN_POINT('',(-0.00475,0.0001,0.000475));
#1764=CARTESIAN_POINT('',(-0.004125,0.0001,0.000475));
#1765=CARTESIAN_POINT('',(-0.00475,5.E-5,0.000475));
#1766=CARTESIAN_POINT('',(-0.00475,5.E-5,-0.000475));
#1767=CARTESIAN_POINT('',(-0.00475,-1.28749007982654E-19,-0.000475));
#1768=CARTESIAN_POINT('',(-0.00475,-1.28749007982654E-19,0.000475));
#1769=CARTESIAN_POINT('',(-0.00475,-1.28749007982654E-19,0.000475));
#1770=CARTESIAN_POINT('',(-0.00475,5.E-5,0.000475));
#1771=CARTESIAN_POINT('',(-0.004075,0.,0.000475));
#1772=CARTESIAN_POINT('',(-0.004075,0.,-0.000475));
#1773=CARTESIAN_POINT('',(-0.004075,0.,0.000475));
#1774=CARTESIAN_POINT('',(-0.003975,0.000625,0.000475));
#1775=CARTESIAN_POINT('',(-0.003975,0.000625,-0.000475));
#1776=CARTESIAN_POINT('',(0.,0.,0.));
#1777=CARTESIAN_POINT('',(0.0034,5.E-5,0.000475));
#1778=CARTESIAN_POINT('',(0.0034,5.E-5,-0.000475));
#1779=CARTESIAN_POINT('',(0.0034,0.,-0.000475));
#1780=CARTESIAN_POINT('',(0.00335,5.E-5,-0.000475));
#1781=CARTESIAN_POINT('',(0.0034,0.,0.000475));
#1782=CARTESIAN_POINT('',(0.0034,0.,0.000475));
#1783=CARTESIAN_POINT('',(0.0034,5.E-5,0.000475));
#1784=CARTESIAN_POINT('',(0.00335,5.E-5,0.000475));
#1785=CARTESIAN_POINT('',(0.00335,5.E-5,0.000475));
#1786=CARTESIAN_POINT('',(0.00335,0.000575,0.000475));
#1787=CARTESIAN_POINT('',(0.00335,0.000575,-0.000475));
#1788=CARTESIAN_POINT('',(0.00335,0.0011,-0.000475));
#1789=CARTESIAN_POINT('',(0.00335,0.000575,0.000475));
#1790=CARTESIAN_POINT('',(0.00335,0.0011,0.000475));
#1791=CARTESIAN_POINT('',(0.00335,0.0011,0.000475));
#1792=CARTESIAN_POINT('',(0.0033,0.0011,0.000475));
#1793=CARTESIAN_POINT('',(0.0033,0.0011,-0.000475));
#1794=CARTESIAN_POINT('',(0.0033,0.00115,-0.000475));
#1795=CARTESIAN_POINT('',(0.0033,0.0011,0.000475));
#1796=CARTESIAN_POINT('',(0.0033,0.00115,0.000475));
#1797=CARTESIAN_POINT('',(0.0033,0.00115,0.000475));
#1798=CARTESIAN_POINT('',(0.00325,0.00115,0.000475));
#1799=CARTESIAN_POINT('',(0.00325,0.00115,-0.000475));
#1800=CARTESIAN_POINT('',(0.0032,0.00115,-0.000475));
#1801=CARTESIAN_POINT('',(0.00325,0.00115,0.000475));
#1802=CARTESIAN_POINT('',(0.0032,0.00115,0.000475));
#1803=CARTESIAN_POINT('',(0.0032,0.00115,0.000475));
#1804=CARTESIAN_POINT('',(0.0032,0.0012,0.000475));
#1805=CARTESIAN_POINT('',(0.0032,0.0012,-0.000475));
#1806=CARTESIAN_POINT('',(0.0032,0.00125,-0.000475));
#1807=CARTESIAN_POINT('',(0.0032,0.0012,0.000475));
#1808=CARTESIAN_POINT('',(0.0032,0.00125,0.000475));
#1809=CARTESIAN_POINT('',(0.0032,0.00125,0.000475));
#1810=CARTESIAN_POINT('',(0.0033,0.00125,0.000475));
#1811=CARTESIAN_POINT('',(0.0033,0.00125,-0.000475));
#1812=CARTESIAN_POINT('',(0.0034,0.00125,-0.000475));
#1813=CARTESIAN_POINT('',(0.0033,0.00125,0.000475));
#1814=CARTESIAN_POINT('',(0.0034,0.00125,0.000475));
#1815=CARTESIAN_POINT('',(0.0034,0.00125,0.000475));
#1816=CARTESIAN_POINT('',(0.0034,0.0012,0.000475));
#1817=CARTESIAN_POINT('',(0.0034,0.0012,-0.000475));
#1818=CARTESIAN_POINT('',(0.00345,0.0012,-0.000475));
#1819=CARTESIAN_POINT('',(0.0034,0.0012,0.000475));
#1820=CARTESIAN_POINT('',(0.00345,0.0012,0.000475));
#1821=CARTESIAN_POINT('',(0.00345,0.0012,0.000475));
#1822=CARTESIAN_POINT('',(0.00345,0.000675,0.000475));
#1823=CARTESIAN_POINT('',(0.00345,0.000675,-0.000475));
#1824=CARTESIAN_POINT('',(0.00345,0.00015,-0.000475));
#1825=CARTESIAN_POINT('',(0.00345,0.000675,0.000475));
#1826=CARTESIAN_POINT('',(0.00345,0.00015,0.000475));
#1827=CARTESIAN_POINT('',(0.00345,0.00015,0.000475));
#1828=CARTESIAN_POINT('',(0.0035,0.00015,0.000475));
#1829=CARTESIAN_POINT('',(0.0035,0.00015,-0.000475));
#1830=CARTESIAN_POINT('',(0.0035,0.0001,-0.000475));
#1831=CARTESIAN_POINT('',(0.0035,0.00015,0.000475));
#1832=CARTESIAN_POINT('',(0.0035,0.0001,0.000475));
#1833=CARTESIAN_POINT('',(0.0035,0.0001,0.000475));
#1834=CARTESIAN_POINT('',(0.004125,0.0001,0.000475));
#1835=CARTESIAN_POINT('',(0.004125,0.0001,-0.000475));
#1836=CARTESIAN_POINT('',(0.00475,0.0001,-0.000475));
#1837=CARTESIAN_POINT('',(0.004125,0.0001,0.000475));
#1838=CARTESIAN_POINT('',(0.00475,0.0001,0.000475));
#1839=CARTESIAN_POINT('',(0.00475,0.0001,0.000475));
#1840=CARTESIAN_POINT('',(0.00475,5.E-5,0.000475));
#1841=CARTESIAN_POINT('',(0.00475,5.E-5,-0.000475));
#1842=CARTESIAN_POINT('',(0.00475,-1.28749007982654E-19,-0.000475));
#1843=CARTESIAN_POINT('',(0.00475,5.E-5,0.000475));
#1844=CARTESIAN_POINT('',(0.00475,-1.28749007982654E-19,0.000475));
#1845=CARTESIAN_POINT('',(0.00475,-1.28749007982654E-19,0.000475));
#1846=CARTESIAN_POINT('',(0.004075,0.,0.000475));
#1847=CARTESIAN_POINT('',(0.004075,0.,-0.000475));
#1848=CARTESIAN_POINT('',(0.004075,0.,0.000475));
#1849=CARTESIAN_POINT('',(0.003975,0.000625,0.000475));
#1850=CARTESIAN_POINT('',(0.003975,0.000625,-0.000475));
#1851=MECHANICAL_DESIGN_GEOMETRIC_PRESENTATION_REPRESENTATION('',(#1063),
#1854);
#1852=MECHANICAL_DESIGN_GEOMETRIC_PRESENTATION_REPRESENTATION('',(#1064),
#1855);
#1853=MECHANICAL_DESIGN_GEOMETRIC_PRESENTATION_REPRESENTATION('',(#1065),
#1856);
#1854=(
GEOMETRIC_REPRESENTATION_CONTEXT(3)
GLOBAL_UNCERTAINTY_ASSIGNED_CONTEXT((#1857))
GLOBAL_UNIT_ASSIGNED_CONTEXT((#1866,#1863,#1860))
REPRESENTATION_CONTEXT('Body','TOP_LEVEL_ASSEMBLY_PART')
);
#1855=(
GEOMETRIC_REPRESENTATION_CONTEXT(3)
GLOBAL_UNCERTAINTY_ASSIGNED_CONTEXT((#1858))
GLOBAL_UNIT_ASSIGNED_CONTEXT((#1867,#1864,#1861))
REPRESENTATION_CONTEXT('Leg','TOP_LEVEL_ASSEMBLY_PART')
);
#1856=(
GEOMETRIC_REPRESENTATION_CONTEXT(3)
GLOBAL_UNCERTAINTY_ASSIGNED_CONTEXT((#1859))
GLOBAL_UNIT_ASSIGNED_CONTEXT((#1868,#1865,#1862))
REPRESENTATION_CONTEXT('Part 3','TOP_LEVEL_ASSEMBLY_PART')
);
#1857=UNCERTAINTY_MEASURE_WITH_UNIT(LENGTH_MEASURE(1.E-8),#1866,
'DISTANCE_ACCURACY_VALUE','Maximum Tolerance applied to model');
#1858=UNCERTAINTY_MEASURE_WITH_UNIT(LENGTH_MEASURE(1.E-8),#1867,
'DISTANCE_ACCURACY_VALUE','Maximum Tolerance applied to model');
#1859=UNCERTAINTY_MEASURE_WITH_UNIT(LENGTH_MEASURE(1.E-8),#1868,
'DISTANCE_ACCURACY_VALUE','Maximum Tolerance applied to model');
#1860=(
NAMED_UNIT(*)
SI_UNIT($,.STERADIAN.)
SOLID_ANGLE_UNIT()
);
#1861=(
NAMED_UNIT(*)
SI_UNIT($,.STERADIAN.)
SOLID_ANGLE_UNIT()
);
#1862=(
NAMED_UNIT(*)
SI_UNIT($,.STERADIAN.)
SOLID_ANGLE_UNIT()
);
#1863=(
NAMED_UNIT(*)
PLANE_ANGLE_UNIT()
SI_UNIT($,.RADIAN.)
);
#1864=(
NAMED_UNIT(*)
PLANE_ANGLE_UNIT()
SI_UNIT($,.RADIAN.)
);
#1865=(
NAMED_UNIT(*)
PLANE_ANGLE_UNIT()
SI_UNIT($,.RADIAN.)
);
#1866=(
LENGTH_UNIT()
NAMED_UNIT(*)
SI_UNIT($,.METRE.)
);
#1867=(
LENGTH_UNIT()
NAMED_UNIT(*)
SI_UNIT($,.METRE.)
);
#1868=(
LENGTH_UNIT()
NAMED_UNIT(*)
SI_UNIT($,.METRE.)
);
#1869=PRODUCT_DEFINITION_SHAPE('','',#1872);
#1870=PRODUCT_DEFINITION_SHAPE('','',#1873);
#1871=PRODUCT_DEFINITION_SHAPE('','',#1874);
#1872=PRODUCT_DEFINITION('','',#1878,#1875);
#1873=PRODUCT_DEFINITION('','',#1879,#1876);
#1874=PRODUCT_DEFINITION('','',#1880,#1877);
#1875=PRODUCT_DEFINITION_CONTEXT('',#1896,'design');
#1876=PRODUCT_DEFINITION_CONTEXT('',#1897,'design');
#1877=PRODUCT_DEFINITION_CONTEXT('',#1898,'design');
#1878=PRODUCT_DEFINITION_FORMATION_WITH_SPECIFIED_SOURCE('','',#1884,
 .NOT_KNOWN.);
#1879=PRODUCT_DEFINITION_FORMATION_WITH_SPECIFIED_SOURCE('','',#1885,
 .NOT_KNOWN.);
#1880=PRODUCT_DEFINITION_FORMATION_WITH_SPECIFIED_SOURCE('','',#1886,
 .NOT_KNOWN.);
#1881=PRODUCT_RELATED_PRODUCT_CATEGORY('','',(#1884));
#1882=PRODUCT_RELATED_PRODUCT_CATEGORY('','',(#1885));
#1883=PRODUCT_RELATED_PRODUCT_CATEGORY('','',(#1886));
#1884=PRODUCT('Body','Body','Body',(#1890));
#1885=PRODUCT('Leg','Leg','Leg',(#1891));
#1886=PRODUCT('Part 3','Part 3','Part 3',(#1892));
#1887=PRODUCT_CATEGORY('','');
#1888=PRODUCT_CATEGORY('','');
#1889=PRODUCT_CATEGORY('','');
#1890=PRODUCT_CONTEXT('',#1896,'mechanical');
#1891=PRODUCT_CONTEXT('',#1897,'mechanical');
#1892=PRODUCT_CONTEXT('',#1898,'mechanical');
#1893=APPLICATION_PROTOCOL_DEFINITION('international standard',
'ap242_managed_model_based_3d_engineering',2011,#1896);
#1894=APPLICATION_PROTOCOL_DEFINITION('international standard',
'ap242_managed_model_based_3d_engineering',2011,#1897);
#1895=APPLICATION_PROTOCOL_DEFINITION('international standard',
'ap242_managed_model_based_3d_engineering',2011,#1898);
#1896=APPLICATION_CONTEXT('managed model based 3d engineering');
#1897=APPLICATION_CONTEXT('managed model based 3d engineering');
#1898=APPLICATION_CONTEXT('managed model based 3d engineering');
ENDSEC;
END-ISO-10303-21;
